<?xml version="1.0" encoding="UTF-8" standalone="no"?>
<svg
   xmlns:dc="http://purl.org/dc/elements/1.1/"
   xmlns:cc="http://creativecommons.org/ns#"
   xmlns:rdf="http://www.w3.org/1999/02/22-rdf-syntax-ns#"
   xmlns:svg="http://www.w3.org/2000/svg"
   xmlns="http://www.w3.org/2000/svg"
   xmlns:sodipodi="http://sodipodi.sourceforge.net/DTD/sodipodi-0.dtd"
   xmlns:inkscape="http://www.inkscape.org/namespaces/inkscape"
   width="64"
   height="64"
   viewBox="0 0 16.933333 16.933333"
   version="1.1"
   id="svg84"
   inkscape:version="1.0 (4035a4f, 2020-05-01)"
   sodipodi:docname="buildit-stacked.svg">
  <defs
     id="defs78" />
  <sodipodi:namedview
     id="base"
     pagecolor="#ffffff"
     bordercolor="#666666"
     borderopacity="1.0"
     inkscape:pageopacity="0.0"
     inkscape:pageshadow="2"
     inkscape:zoom="6.2067193"
     inkscape:cx="-0.59157674"
     inkscape:cy="17.414306"
     inkscape:document-units="px"
     inkscape:current-layer="layer1"
     inkscape:document-rotation="0"
     showgrid="true"
     lock-margins="true"
     units="px"
     inkscape:window-width="1416"
     inkscape:window-height="943"
     inkscape:window-x="174"
     inkscape:window-y="23"
     inkscape:window-maximized="0">
    <inkscape:grid
       type="xygrid"
       id="grid1071"
       empspacing="4" />
  </sodipodi:namedview>
  <metadata
     id="metadata81">
    <rdf:RDF>
      <cc:Work
         rdf:about="">
        <dc:format>image/svg+xml</dc:format>
        <dc:type
           rdf:resource="http://purl.org/dc/dcmitype/StillImage" />
        <dc:title />
      </cc:Work>
    </rdf:RDF>
  </metadata>
  <g
     inkscape:label="Layer 1"
     inkscape:groupmode="layer"
     id="layer1">
    <path
       d="M 3.076596,6.1854561 C 2.9965072,6.1213861 2.9003995,6.05731 2.7882728,6.0252783 2.676146,5.9932525 2.5480065,5.9612025 2.4198608,5.9612025 c -0.1601777,0 -0.3043421,0.032026 -0.4324878,0.080095 C 1.8592334,6.0893666 1.7631257,6.1534182 1.6990499,6.2335131 V 4.9841124 H 1.0583337 v 3.7481951 h 0.560627 l 0.048069,-0.2883231 c 0.080089,0.1281456 0.1922155,0.2082345 0.3203551,0.2723105 0.1441647,0.064069 0.2883232,0.080088 0.4324876,0.080088 0.1281458,0 0.2562852,-0.016043 0.3684121,-0.064075 C 2.9004112,8.6842385 2.996519,8.6361998 3.0766079,8.57213 3.2367856,8.4439844 3.3649308,8.267788 3.44502,8.0755725 3.5251085,7.883357 3.5571464,7.6430906 3.5571464,7.3867994 3.5571464,6.842191 3.3969688,6.441741 3.0766079,6.1854561 Z M 2.8523424,7.7231795 c -0.016043,0.1121265 -0.064069,0.2242534 -0.1441586,0.3043419 -0.048069,0.06407 -0.1121267,0.1121269 -0.1761962,0.1441587 -0.064076,0.048069 -0.1601839,0.064076 -0.2562916,0.064076 -0.080089,0 -0.1601773,-0.016043 -0.2242469,-0.032026 C 1.987373,8.1717043 1.9393221,8.1396602 1.891265,8.1076224 1.7951575,8.0275336 1.7310879,7.9154069 1.6990499,7.7712422 1.6670241,7.6270839 1.6509808,7.4989382 1.6509808,7.3707987 c 0,-0.096108 0,-0.1922157 0.016043,-0.3043422 0.016043,-0.096108 0.048069,-0.1922153 0.096108,-0.2883232 0.048069,-0.080089 0.1121264,-0.1601836 0.1922153,-0.2082345 0.080089,-0.048069 0.1761963,-0.080089 0.3043421,-0.080089 0.096108,0 0.1922154,0.016043 0.2562853,0.064069 0.06407,0.048069 0.1281458,0.096107 0.1761965,0.1441645 0.064069,0.096108 0.1121267,0.1922156 0.1441648,0.3043365 0.016043,0.1121262 0.032026,0.2242534 0.032026,0.3523987 0.016043,0.1441585 0.016043,0.2562855 -0.016043,0.3684119 z M 5.7035423,6.0252783 H 6.3602774 V 8.7323075 H 5.8156689 L 5.7676001,8.3799145 C 5.7035303,8.5080601 5.6074225,8.6201868 5.4632578,8.6842567 5.3190994,8.7643455 5.1749346,8.7963833 4.998738,8.7963833 c -0.1441583,0 -0.2723041,-0.016043 -0.3844306,-0.064075 C 4.5021808,8.6842385 4.4060727,8.6201868 4.3259842,8.5400919 4.2458953,8.4600033 4.1818254,8.3478766 4.1337686,8.2357562 4.0856996,8.1236292 4.0696988,7.9794647 4.0696988,7.835306 V 6.0252783 h 0.6567351 v 1.6498444 c 0,0.1601833 0.032026,0.2883231 0.096108,0.3844307 0.06407,0.096108 0.1922154,0.1441647 0.368412,0.1441647 0.080089,0 0.1441646,-0.016043 0.1922154,-0.032026 0.048069,-0.032026 0.096108,-0.06407 0.1441647,-0.096108 C 5.6074225,7.9954956 5.655473,7.9154067 5.687511,7.8032802 5.719537,7.6911533 5.719537,7.5790269 5.719537,7.4669061 V 6.0252904 Z m 1.361527,-1.0411659 h 0.6887671 v 0.672754 H 7.0650693 Z m 0.016043,1.0411659 h 0.656741 v 2.7070292 h -0.656741 z m 2.3546422,2.1624208 c 0.016043,0 0.032026,0 0.048069,0 v 0.5446084 c -0.064069,0.016043 -0.1121267,0.016043 -0.1441647,0.032026 -0.032026,0 -0.080089,0 -0.1441585,0 -0.2242535,0 -0.4004498,-0.064069 -0.5285956,-0.1761961 C 8.5387592,8.4760101 8.4586705,8.2837946 8.4586705,8.0275094 V 4.9680812 h 0.656735 v 2.9473016 c 0,0.080089 0.016043,0.1441584 0.048069,0.1922156 0.032026,0.048069 0.096108,0.064069 0.2082343,0.064069 0.016043,0.016043 0.048069,0.016043 0.064069,0.016043 z M 11.582162,6.2174939 c -0.06407,-0.064076 -0.144164,-0.1281457 -0.27231,-0.1761965 -0.11212,-0.048069 -0.272304,-0.080095 -0.432481,-0.080095 -0.144165,0 -0.256285,0.016043 -0.368412,0.064075 -0.112127,0.032026 -0.208234,0.096107 -0.288324,0.1601778 -0.3203602,0.2723038 -0.4805379,0.6727537 -0.4805379,1.2013433 0,0.2562912 0.032026,0.4805386 0.1121267,0.6887731 0.080089,0.1922155 0.1922162,0.3684119 0.3684112,0.4965574 0.08009,0.064069 0.176197,0.1281459 0.288324,0.1601776 0.112127,0.048069 0.240266,0.064075 0.368412,0.064075 0.144159,0 0.288324,-0.032026 0.432481,-0.080088 0.144165,-0.064076 0.240273,-0.144165 0.320362,-0.2723105 l 0.04807,0.2883231 H 12.23891 V 4.9841124 h -0.656735 z m 0.03203,1.1532927 c 0,0.096107 0,0.1922156 -0.01605,0.3043361 -0.01604,0.096108 -0.04807,0.1922154 -0.09611,0.2883231 -0.04807,0.080095 -0.112126,0.1601834 -0.192216,0.2082343 -0.08009,0.048069 -0.176201,0.080089 -0.304342,0.080089 -0.09611,0 -0.192215,-0.015983 -0.25629,-0.064069 -0.06407,-0.048069 -0.12814,-0.096108 -0.176197,-0.1441585 -0.06407,-0.096108 -0.112127,-0.1922155 -0.144158,-0.3043423 -0.01605,-0.1121266 -0.03203,-0.2402722 -0.03203,-0.352399 0,-0.1121208 0.01605,-0.2402661 0.03203,-0.3523929 0.01605,-0.1121267 0.06407,-0.2242535 0.144158,-0.3043424 0.04806,-0.064069 0.112127,-0.1121265 0.176197,-0.1441583 0.06408,-0.048069 0.160183,-0.064075 0.25629,-0.064075 0.128141,0 0.224248,0.032026 0.304342,0.080095 0.08009,0.048069 0.144159,0.1281395 0.192216,0.2082284 0.04806,0.080095 0.08008,0.1762026 0.09611,0.2883234 0,0.080095 0.01605,0.1762022 0.01605,0.2723102 z M 12.94368,4.9841124 h 0.688774 v 0.672754 H 12.94368 Z m 0.01605,1.0411659 h 0.656737 V 8.7323075 H 12.959736 Z M 15.875,8.1556611 v 0.5446147 c -0.192216,0.048069 -0.368413,0.080089 -0.560626,0.080089 -0.272305,0 -0.48054,-0.080089 -0.608685,-0.2242532 C 14.577536,8.4119524 14.497448,8.2037181 14.497448,7.9474329 V 6.5698868 H 14.00089 V 6.0252783 h 0.496558 V 5.3365054 l 0.656735,-0.1601778 v 0.8489507 h 0.688771 V 6.553868 h -0.704783 v 1.3134701 c 0,0.096107 0.03203,0.1762026 0.08009,0.2242533 0.04806,0.048069 0.12814,0.064069 0.224245,0.064069 0.06408,0 0.128147,0 0.192216,0 0.06408,0.016043 0.144164,0 0.240272,0 z"
       id="svg-logo-buildit"
       class="grav-svg-hl-1"
       style="fill:#0060ff;stroke-width:0.160179;stroke:none" />
    <path
       d="m 7.4048926,10.687027 c -0.3879432,0 -0.7031486,0.323288 -0.7031486,0.71931 0,0.396026 0.3152054,0.719314 0.7031486,0.719314 0.3879432,0 0.7031456,-0.323288 0.7031456,-0.719314 0,-0.396022 -0.3152024,-0.71931 -0.7031456,-0.71931 m 0,1.099174 c -0.2020544,0 -0.3636983,-0.169726 -0.3636983,-0.379864 0,-0.210134 0.1616439,-0.37986 0.3636983,-0.37986 0.2020512,0 0.3636953,0.169726 0.3636953,0.37986 0,0.210138 -0.1616441,0.379864 -0.3636953,0.379864 M 3.0001175,10.727439 H 2.7414906 c -0.024254,0 -0.048492,0.01616 -0.048492,0.04041 L 2.4828609,11.430585 2.1191655,10.727439 c -0.0081,-0.01616 -0.03233,-0.03233 -0.056576,-0.03233 h -0.024254 c -0.024254,0 -0.048493,0.01616 -0.056576,0.03233 L 1.618062,11.430585 1.407925,10.76785 C 1.399825,10.75169 1.375598,10.72744 1.359432,10.72744 H 1.1008053 c -0.03233,0 -0.048493,0.02426 -0.040414,0.05657 l 0.4202738,1.309309 c 0.0081,0.01616 0.032327,0.04041 0.048493,0.04041 h 0.040411 c 0.024254,0 0.048493,-0.01616 0.056576,-0.03232 l 0.4283535,-0.832463 0.4364363,0.832463 c 0.0081,0.01616 0.032327,0.03232 0.056576,0.03232 h 0.04041 c 0.024254,0 0.048493,-0.01616 0.048493,-0.04041 l 0.42027,-1.309304 c -0.0081,-0.03232 -0.024254,-0.05657 -0.056576,-0.05657 m 0.6061629,0 H 3.3476414 c -0.032327,0 -0.056576,0.02426 -0.056576,0.05657 v 1.244654 c 0,0.03232 0.024254,0.05657 0.056576,0.05657 h 0.2586298 c 0.032327,0 0.056576,-0.02426 0.056576,-0.05657 v -1.244654 c 0,-0.03232 -0.024254,-0.05657 -0.056576,-0.05657 m 1.1395819,-0.04041 c -0.1778063,0 -0.3394504,0.08083 -0.460681,0.202053 v 0 l -0.048493,-0.12932 c -0.0081,-0.01616 -0.032327,-0.04041 -0.056576,-0.04041 H 4.0588727 c -0.032331,0 -0.056576,0.02426 -0.056576,0.05658 v 1.963961 c 0,0.03232 0.024254,0.05658 0.056576,0.05658 h 0.2586269 c 0.03233,0 0.056576,-0.02426 0.056576,-0.05658 v -0.678901 c 0.1131511,0.04041 0.2343819,0.05658 0.3636983,0.05658 0.3636953,0 0.6627354,-0.323288 0.6627354,-0.719311 0.0081,-0.387943 -0.2909574,-0.711231 -0.6546557,-0.711231 m -0.072738,1.099174 c -0.1050683,0 -0.2101368,-0.02425 -0.2909572,-0.07274 v -0.517258 c 0.064658,-0.105068 0.1697235,-0.169726 0.2909572,-0.169726 0.1939718,0 0.3475331,0.169726 0.3475331,0.379861 0,0.210137 -0.1535613,0.379863 -0.3475331,0.379863 m 1.697252,-1.099174 c -0.2505472,0 -0.396026,0.202054 -0.396026,0.202054 l -0.048493,-0.129313 c -0.0081,-0.01616 -0.032327,-0.04041 -0.056576,-0.04041 H 5.7480417 c -0.03233,0 -0.056576,0.02426 -0.056576,0.05658 v 1.24465 c 0,0.03233 0.024254,0.05658 0.056576,0.05658 h 0.258627 c 0.03233,0 0.056576,-0.02426 0.056576,-0.05658 v -0.864789 c 0.1535612,-0.185892 0.3475329,-0.121235 0.387943,-0.105069 0.040411,0.01616 0.064658,0 0.080824,-0.03233 0.016159,-0.03232 0.064655,-0.153558 0.088903,-0.202051 0.024254,-0.04849 0,-0.129316 -0.2505471,-0.129316 m -2.844917,-0.598093 c -0.1131509,-0.03233 -0.2263021,0.03232 -0.2586297,0.145479 -0.032327,0.113149 0.032327,0.226299 0.1454788,0.258627 0.1131509,0.03233 0.2262991,-0.03233 0.2586296,-0.145478 0.032328,-0.121232 -0.03233,-0.234382 -0.1454787,-0.258628"
       id="svg-logo-wipro"
       class="grav-svg-hl-2"
       style="stroke-width:0.0808213;stroke:none" />
    <path
       d="m 9.7002221,10.864836 c -0.016159,-0.03233 -0.040411,-0.05658 -0.072738,-0.08083 -0.03233,-0.02426 -0.064658,-0.04041 -0.096986,-0.05657 -0.03233,-0.01616 -0.072741,-0.02426 -0.1050685,-0.04041 -0.04041,-0.0081 -0.072741,-0.01616 -0.113151,-0.01616 -0.08082,0 -0.1454788,0.01616 -0.2101339,0.04041 -0.056576,0.02426 -0.113151,0.05657 -0.1535615,0.09698 -0.064659,0.06466 -0.113151,0.145479 -0.1535612,0.242464 -0.032327,0.09698 -0.048493,0.202055 -0.048493,0.323285 0,0.113152 0.016159,0.210138 0.048493,0.307123 0.032327,0.09698 0.08082,0.177806 0.1454786,0.242465 0.040411,0.04849 0.096986,0.08083 0.1616441,0.105069 0.064655,0.02426 0.1373961,0.04041 0.2182165,0.04041 0.072741,0 0.1535615,-0.01616 0.2262993,-0.05658 0.072741,-0.04041 0.1293164,-0.0889 0.1697266,-0.153562 l 0.01616,0.169728 H 9.926519 V 10.145529 H 9.7002167 Z m -0.024254,0.743556 c -0.024254,0.07274 -0.056576,0.137396 -0.1131512,0.185889 -0.024254,0.02426 -0.056576,0.04849 -0.088903,0.06466 -0.032327,0.01616 -0.072741,0.02426 -0.1212337,0.02426 -0.072738,0 -0.137396,-0.01616 -0.185889,-0.04849 -0.048493,-0.03233 -0.088903,-0.07274 -0.1131482,-0.121234 -0.024254,-0.04849 -0.048493,-0.105069 -0.056576,-0.161644 -0.0081,-0.05657 -0.016159,-0.121232 -0.016159,-0.185889 0,-0.06466 0.0081,-0.121231 0.016159,-0.18589 0.0081,-0.05658 0.032327,-0.11315 0.056576,-0.161644 0.024254,-0.04849 0.064658,-0.0889 0.1131511,-0.12123 0.048493,-0.03232 0.1131481,-0.04849 0.1858891,-0.04849 0.048493,0 0.088903,0.0081 0.1212307,0.02426 0.03233,0.01616 0.064658,0.04041 0.088903,0.06466 0.056576,0.04849 0.096986,0.113151 0.1131512,0.185889 0.024254,0.07274 0.032327,0.153561 0.032327,0.234382 0,0.09698 -0.0081,0.17781 -0.032327,0.250547 z m 0.6869839,-0.897118 h 0.226299 v 1.325471 h -0.226299 z m -0.01616,-0.565749 h 0.258626 v 0.258627 h -0.258626 z m 1.713417,1.826565 c -0.04849,-0.05658 -0.121234,-0.0889 -0.202055,-0.113151 -0.08083,-0.01616 -0.161644,-0.03232 -0.242464,-0.03232 h -0.25863 c -0.02426,0 -0.04041,0 -0.06466,0 -0.02426,0 -0.04849,-0.0081 -0.06466,-0.01616 -0.01616,-0.0081 -0.03233,-0.02426 -0.04849,-0.04041 -0.01616,-0.01616 -0.01616,-0.04041 -0.01616,-0.07274 0,-0.03232 0.01616,-0.05657 0.04041,-0.07274 0.02426,-0.01616 0.04849,-0.03233 0.07274,-0.04041 0.04041,0.01616 0.08082,0.02426 0.105069,0.03232 0.03232,0.0081 0.06466,0.0081 0.113148,0.0081 0.0889,0 0.169726,-0.01616 0.234382,-0.04041 0.06466,-0.03233 0.121233,-0.06466 0.161644,-0.113152 0.04041,-0.04041 0.06466,-0.0889 0.0889,-0.145479 0.02426,-0.05658 0.03233,-0.113151 0.03233,-0.177806 0,-0.05658 -0.0081,-0.113151 -0.02426,-0.153561 -0.01616,-0.04849 -0.03233,-0.08083 -0.06466,-0.121232 0.0081,-0.04041 0.02426,-0.06466 0.05658,-0.0889 0.03232,-0.02426 0.06466,-0.03232 0.105068,-0.03232 h 0.02426 c 0.0081,0 0.01616,0 0.02426,0 v -0.177806 c -0.0081,0 -0.02426,0 -0.03233,0 -0.0081,0 -0.02426,0 -0.03232,0 -0.06466,0 -0.121233,0.01616 -0.169727,0.04849 -0.04849,0.03233 -0.08082,0.08083 -0.105065,0.137397 -0.04041,-0.02426 -0.0889,-0.04041 -0.137399,-0.05658 -0.04849,-0.01616 -0.105065,-0.02426 -0.169724,-0.02426 -0.0889,0 -0.161644,0.01616 -0.226299,0.04041 -0.06466,0.02426 -0.121234,0.06466 -0.161644,0.113148 -0.04041,0.04041 -0.07274,0.08891 -0.0889,0.137397 -0.02426,0.04849 -0.03233,0.113151 -0.03233,0.185891 0,0.06466 0.01616,0.121232 0.04041,0.185889 0.02426,0.06466 0.06466,0.113149 0.113147,0.153561 -0.04849,0.02426 -0.0889,0.05657 -0.129313,0.105067 -0.03232,0.04041 -0.04849,0.09698 -0.04849,0.153561 0,0.04849 0.01616,0.09698 0.04041,0.137395 0.03232,0.04041 0.06466,0.07274 0.113151,0.0889 -0.04849,0.02426 -0.09698,0.06466 -0.137397,0.113148 -0.04041,0.04849 -0.05658,0.113151 -0.05658,0.177809 0,0.04849 0.0081,0.09698 0.02426,0.137396 0.01616,0.04041 0.04041,0.07274 0.06466,0.09698 0.03233,0.03232 0.06466,0.05658 0.105068,0.08083 0.04041,0.01616 0.08083,0.03233 0.129317,0.04849 0.04041,0.0081 0.0889,0.01616 0.137395,0.02426 0.04849,0.008 0.0889,0.008 0.137396,0.008 0.04849,0 0.09698,0 0.145479,-0.008 0.04849,-0.0081 0.09698,-0.01616 0.145479,-0.02426 0.04849,-0.0081 0.0889,-0.02426 0.137396,-0.04849 0.04041,-0.01616 0.08083,-0.04849 0.113151,-0.08083 0.03232,-0.03233 0.05658,-0.07274 0.08083,-0.113151 0.02426,-0.04849 0.03233,-0.09698 0.03233,-0.153561 0,-0.05658 -0.0081,-0.105068 -0.03233,-0.145479 -0.01616,-0.04849 -0.04041,-0.0889 -0.07274,-0.121231 z m -0.792053,-1.034516 c 0.05658,-0.05658 0.129314,-0.08082 0.218217,-0.08082 0.09698,0 0.169728,0.02426 0.21822,0.08082 0.05658,0.05658 0.08082,0.121234 0.08082,0.210137 0,0.0889 -0.02426,0.153561 -0.08082,0.210133 -0.05658,0.05658 -0.129314,0.0889 -0.21822,0.0889 -0.09698,0 -0.169724,-0.03233 -0.218217,-0.0889 -0.05657,-0.05657 -0.08082,-0.129313 -0.08082,-0.210133 0,-0.08083 0.03232,-0.153561 0.08082,-0.210137 z m 0.622325,1.430542 c -0.02426,0.02426 -0.04849,0.04041 -0.07274,0.04849 -0.03233,0.01616 -0.06466,0.02426 -0.09698,0.03232 -0.03233,0.0081 -0.06466,0.0081 -0.09698,0.01616 -0.03233,0 -0.06466,0 -0.0889,0 -0.03232,0 -0.06466,0 -0.09698,0 -0.03232,0 -0.06466,-0.0081 -0.09698,-0.0081 -0.03232,-0.0081 -0.06466,-0.01616 -0.0889,-0.02426 -0.03232,-0.01616 -0.05657,-0.03232 -0.07274,-0.04849 -0.04041,-0.04041 -0.05657,-0.08083 -0.05657,-0.137397 0,-0.04849 0.01616,-0.09698 0.04849,-0.129313 0.03232,-0.04041 0.07274,-0.06466 0.121231,-0.08083 h 0.307124 c 0.04041,0 0.08083,0 0.121233,0.0081 0.04041,0 0.08083,0.01616 0.113149,0.02426 0.03233,0.01616 0.06466,0.03232 0.08083,0.06466 0.02426,0.02426 0.03233,0.06466 0.03233,0.11315 0,0.04041 -0.02426,0.0889 -0.05658,0.121235 z m 0.509178,-1.656842 h 0.226299 v 1.325471 h -0.226299 z m -0.01616,-0.565749 h 0.258628 v 0.258627 h -0.258628 z m 1.293144,1.697249 c 0.02426,0 0.04849,-0.008 0.08083,-0.01616 v 0.193971 c -0.03232,0.0081 -0.06466,0.01616 -0.105068,0.02426 -0.04041,0.0081 -0.09698,0.0081 -0.153558,0.0081 -0.07274,0 -0.129317,-0.0081 -0.17781,-0.03232 -0.04849,-0.02426 -0.08083,-0.04849 -0.113148,-0.08083 -0.02426,-0.03232 -0.04849,-0.07274 -0.05658,-0.113148 -0.0081,-0.04041 -0.01616,-0.0889 -0.01616,-0.129316 v -0.79205 h -0.258627 v -0.193972 h 0.258626 v -0.33945 l 0.226303,-0.04849 v 0.387944 h 0.396025 v 0.193972 h -0.396025 v 0.767803 c 0,0.06466 0.01616,0.113152 0.04041,0.137396 0.03232,0.02426 0.07274,0.04041 0.137397,0.04041 0.02426,0 0.04849,0 0.07274,0 0.01616,-0.008 0.04041,-0.008 0.06466,-0.008 z m 1.422459,0.02426 h -0.01616 c -0.02426,0 -0.04041,-0.0081 -0.05658,-0.01616 -0.01616,-0.01616 -0.01616,-0.03232 -0.01616,-0.07274 v -0.63849 c 0,-0.07274 -0.01616,-0.145479 -0.04041,-0.202054 -0.03232,-0.07274 -0.08083,-0.137396 -0.16164,-0.18589 -0.07275,-0.04849 -0.17781,-0.07274 -0.307124,-0.07274 -0.08083,0 -0.161644,0.0081 -0.234381,0.03232 -0.07274,0.02426 -0.129314,0.05658 -0.177807,0.105068 -0.03233,0.03232 -0.06466,0.07274 -0.08083,0.121231 -0.01616,0.04849 -0.03232,0.09698 -0.03232,0.161644 h 0.218217 c 0,-0.06466 0.02426,-0.113152 0.06466,-0.161644 0.02426,-0.02426 0.05657,-0.04041 0.0889,-0.05658 0.04041,-0.01616 0.08891,-0.02426 0.145478,-0.02426 0.05658,0 0.09698,0.0081 0.129317,0.01616 0.03232,0.01616 0.06466,0.03232 0.0889,0.04849 0.03232,0.02426 0.04849,0.05657 0.05658,0.09698 0.0081,0.04041 0.0081,0.07274 0.0081,0.105065 v 0.09698 l -0.40411,0.02426 c -0.0889,0.0081 -0.169726,0.02426 -0.226298,0.04849 -0.05658,0.02426 -0.105069,0.06466 -0.145479,0.09698 -0.04041,0.03232 -0.06466,0.08083 -0.08083,0.129313 -0.01616,0.04849 -0.02426,0.0889 -0.02426,0.137396 0,0.04849 0.0081,0.09698 0.03233,0.145479 0.01616,0.04849 0.04849,0.0889 0.0889,0.129317 0.04041,0.04041 0.08083,0.07274 0.145479,0.09698 0.05657,0.02426 0.12123,0.03233 0.202054,0.03233 0.09698,0 0.177807,-0.01616 0.258627,-0.05657 0.07274,-0.04041 0.129316,-0.0889 0.169727,-0.161641 h 0.0081 c 0,0.05657 0.01616,0.105065 0.04849,0.145478 0.03233,0.04041 0.08083,0.05657 0.137397,0.05657 0.02426,0 0.05658,0 0.07274,-0.008 0.02426,-0.0081 0.04849,-0.01616 0.07274,-0.02426 v -0.161645 l -0.02426,0.0081 c 0.0081,0.0081 0,0.0081 -0.0081,0.0081 z m -0.307123,-0.387943 c 0,0.05658 -0.0081,0.11315 -0.02426,0.161644 -0.01616,0.04849 -0.04849,0.09698 -0.0889,0.137396 -0.03233,0.04041 -0.07274,0.06466 -0.121232,0.08083 -0.04849,0.01616 -0.09698,0.02426 -0.145479,0.02426 -0.09698,0 -0.161643,-0.02426 -0.202053,-0.07274 -0.04041,-0.04849 -0.05658,-0.09698 -0.05658,-0.161644 0,-0.04041 0.0081,-0.08083 0.02426,-0.105065 0.01616,-0.03233 0.04041,-0.05658 0.06466,-0.07274 0.02426,-0.01616 0.05657,-0.03232 0.09698,-0.04041 0.03232,-0.0081 0.07274,-0.01616 0.105066,-0.01616 L 14.80006,11.3902 v 0.0889 z m 1.08301,0.371778 v 0.185888 c -0.0081,0 -0.02426,0.0081 -0.04041,0.0081 -0.02426,0.0081 -0.06466,0.0081 -0.121233,0.0081 -0.09698,0 -0.169724,-0.02426 -0.210134,-0.08083 -0.04041,-0.05658 -0.06466,-0.137396 -0.06466,-0.242466 v -1.5841 h 0.2263 v 1.567935 c 0,0.04849 0.0081,0.08083 0.02426,0.105068 0.01616,0.02426 0.04849,0.03232 0.09698,0.03232 h 0.07274 c 0.0081,0 0.0081,0 0.01616,0 z"
       id="svg-logo-digital"
       class="grav-svg-hl-3"
       style="stroke-width:0.0808213;stroke:none" />
  </g>
</svg>
