<?xml version="1.0" encoding="utf-8"?>
<!-- Generator: Adobe Illustrator 23.1.1, SVG Export Plug-In . SVG Version: 6.00 Build 0)  -->
<svg version="1.1"
	 id="impossible-b-outline" xmlns:cc="http://creativecommons.org/ns#" xmlns:dc="http://purl.org/dc/elements/1.1/" xmlns:inkscape="http://www.inkscape.org/namespaces/inkscape" xmlns:osb="http://www.openswatchbook.org/uri/2009/osb" xmlns:rdf="http://www.w3.org/1999/02/22-rdf-syntax-ns#" xmlns:sodipodi="http://sodipodi.sourceforge.net/DTD/sodipodi-0.dtd" xmlns:svg="http://www.w3.org/2000/svg"
	 xmlns="http://www.w3.org/2000/svg" xmlns:xlink="http://www.w3.org/1999/xlink" x="0px" y="0px" viewBox="0 0 64 64"
	 style="enable-background:new 0 0 64 64;">
<title>Buildit's Outline Avatar</title>
<path id="outline" inkscape:connector-curvature="0" inkscape:label="outline" sodipodi:insensitive="true" sodipodi:nodetypes="cccccccccccccccccccccccccccccccccccccccccccccc" d="
	M50,42.5v-7l-20-15v-14l-5-3.7l-5,3.7v51l5,3.8C33.3,55,41.7,48.8,50,42.5L50,42.5z M25,5.2L27.3,7L25,8.7L22.7,7L25,5.2z M28,9
	v11.5L26,22V10.5L28,9z M22,9l2,1.5v14L39.3,36L37,37.8L24,28v30l-2-1.5V9z M29,22.3L47.3,36L30,49v-3.5L42.7,36l-16-12L29,22.3z
	 M26,32l2,1.5V53l20-15v3.5L26,58L26,32z M30,35l5.3,4L30,43V35z"/>
</svg>
