<svg xmlns="http://www.w3.org/2000/svg" viewBox="0 0 180 171.01"><defs><style>.a{fill:#8b8080;}.b{fill:#f7f5f7;}.c{fill:#c0bbbb;}</style></defs><title>gravity-logo-grey-on-dark</title><path class="a" d="M76.76,22.36a363,363,0,0,0-37.4,20.06A52.32,52.32,0,0,1,116.17,6.6,362.85,362.85,0,0,0,76.76,22.36Zm61.42,7.87A52.69,52.69,0,0,0,132,20.1c-1.44.23-2.94.51-4.49.83C114.8,23.59,99.12,29.1,83.34,36.46S53.25,52.29,43.06,60.3q-1.87,1.47-3.52,2.9a52.34,52.34,0,1,0,98.64-33Z" transform="translate(0.01 0)"/><circle class="b" cx="168.1" cy="12.11" r="11.9"/><path class="c" d="M25.4,77.34c1.59,3.4,7.35,4.55,15.85,3.72A57,57,0,0,0,48,90.41c-25.31,7-43.85,7.42-47.4-.2C-5.09,78,29.93,49.59,78.83,26.79c28.47-13.28,55.38-21.73,74-24.06A17.15,17.15,0,0,0,150,16.25C141.72,10.9,112.87,17.32,81.3,32,46.35,48.33,21.33,68.61,25.4,77.34ZM152.17,21.77c-.63,3.07-3.3,6.89-7.61,11.12a56.81,56.81,0,0,1,2.82,11.19,163.64,163.64,0,0,0,18.1-14.25,17.18,17.18,0,0,1-13.31-8.06Z" transform="translate(0.01 0)"/><path class="c" d="M62.49,168.37l-.05-.63a1.3,1.3,0,0,1-.61.55,1.85,1.85,0,0,1-.8.19,2,2,0,0,1-.77-.13,1.33,1.33,0,0,1-.57-.39,2.21,2.21,0,0,1-.51-.86A3.43,3.43,0,0,1,59,166a3.61,3.61,0,0,1,.18-1.13,2.33,2.33,0,0,1,.53-.88,1.77,1.77,0,0,1,.55-.35,2,2,0,0,1,.76-.13,1.34,1.34,0,0,1,.4.06,1.71,1.71,0,0,1,.38.13,1.51,1.51,0,0,1,.35.2,1.2,1.2,0,0,1,.26.29v-2.56h.79v6.74ZM62.44,166a3.4,3.4,0,0,0-.11-.84,1.57,1.57,0,0,0-.41-.66,1.19,1.19,0,0,0-.33-.22,1.12,1.12,0,0,0-.44-.09,1.38,1.38,0,0,0-.66.17,1,1,0,0,0-.4.42,2.34,2.34,0,0,0-.2.58,3.5,3.5,0,0,0,0,1.29,2.34,2.34,0,0,0,.2.58,1.15,1.15,0,0,0,.4.42,1.19,1.19,0,0,0,.66.17,1.12,1.12,0,0,0,.44-.09,1.46,1.46,0,0,0,.33-.22,1.39,1.39,0,0,0,.41-.66,3.48,3.48,0,0,0,.11-.85Zm-7.88-3.46v-.93h.91v.93Zm0,5.83v-4.73h.81v4.73ZM48.26,166a3.77,3.77,0,0,1-.17,1.1,2.21,2.21,0,0,1-.51.86,1.7,1.7,0,0,1-.57.39,2,2,0,0,1-.77.13,1.89,1.89,0,0,1-.81-.19,1.19,1.19,0,0,1-.6-.55v.63h-.7v-6.76h.79v2.56a1,1,0,0,1,.25-.29,1.1,1.1,0,0,1,.35-.2,3,3,0,0,1,.39-.13,1.34,1.34,0,0,1,.4-.06,1.91,1.91,0,0,1,.75.13,1.67,1.67,0,0,1,.55.35,2,2,0,0,1,.53.88,3.72,3.72,0,0,1,.12,1.15Zm-.81,0a4.6,4.6,0,0,0-.05-.64,2,2,0,0,0-.21-.58,1,1,0,0,0-.4-.42,1.19,1.19,0,0,0-.66-.17,1.12,1.12,0,0,0-.44.09,1.35,1.35,0,0,0-.73.88,3.23,3.23,0,0,0,0,1.69,1.65,1.65,0,0,0,.4.66.77.77,0,0,0,.31.22,1.12,1.12,0,0,0,.44.09,1.19,1.19,0,0,0,.66-.17,1,1,0,0,0,.41-.42,2.34,2.34,0,0,0,.2-.58,2.81,2.81,0,0,0,.07-.65Zm5,2.37-.07-.72a1.32,1.32,0,0,1-.58.63,1.72,1.72,0,0,1-.83.2,1.49,1.49,0,0,1-1.21-.46,1.85,1.85,0,0,1-.4-1.28v-3.1h.8v3a1.32,1.32,0,0,0,.22.82.91.91,0,0,0,.79.29,1.12,1.12,0,0,0,.44-.09,1.24,1.24,0,0,0,.35-.25,1.13,1.13,0,0,0,.31-.59,2.82,2.82,0,0,0,.09-.71v-2.46h.79v4.73Zm6,0h-.57a.89.89,0,0,1-.75-.29,1.38,1.38,0,0,1-.23-.86v-5.68h.78v5.58a.78.78,0,0,0,.09.37.46.46,0,0,0,.33.13h.33v.7Zm6.19-5.83v-.93h.92v.93Zm.06,5.83v-4.73h.81v4.73Zm4.76-.08a1.8,1.8,0,0,0-.38.1,2.53,2.53,0,0,1-.55,0,1.54,1.54,0,0,1-.64-.11,1,1,0,0,1-.41-.29,1.16,1.16,0,0,1-.2-.4,1.93,1.93,0,0,1,0-.48v-2.82h-1v-.68h.92V162.4l.79-.18v1.39H69.4v.68H68V167a.66.66,0,0,0,.14.49.71.71,0,0,0,.48.15h.8v.71Z" transform="translate(0.01 0)"/><path class="c" d="M79.49,164.81a3.12,3.12,0,0,1-.11.86,2.61,2.61,0,0,1-.33.81,1.75,1.75,0,0,1-.58.6,1.45,1.45,0,0,1-.88.24,1.09,1.09,0,0,1-.61-.16.81.81,0,0,1-.31-.53,1,1,0,0,1-.46.51,1.28,1.28,0,0,1-.66.18,1.41,1.41,0,0,1-.64-.13,1.47,1.47,0,0,1-.46-.36,1.5,1.5,0,0,1-.27-.57,2.82,2.82,0,0,1-.09-.71,2.72,2.72,0,0,1,.11-.75,1.58,1.58,0,0,1,.33-.61,1.73,1.73,0,0,1,.53-.4,1.55,1.55,0,0,1,.73-.15,1.06,1.06,0,0,1,.52.13.9.9,0,0,1,.38.37l.11-.39h.62l-.16,2.36v.21a.54.54,0,0,0,0,.18c0,.05.08.11.13.13a.46.46,0,0,0,.2.05.77.77,0,0,0,.52-.2,1.63,1.63,0,0,0,.33-.49,3.28,3.28,0,0,0,.18-.61,2.53,2.53,0,0,0,0-.55,2.46,2.46,0,0,0-.18-1,2.08,2.08,0,0,0-.49-.75,2.52,2.52,0,0,0-.88-.55,3.38,3.38,0,0,0-1.18-.18,3.42,3.42,0,0,0-1.19.2,2.64,2.64,0,0,0-.91.55,2.81,2.81,0,0,0-.74,1,3.88,3.88,0,0,0-.25,1.39,3.34,3.34,0,0,0,.82,2.21,2.48,2.48,0,0,0,.88.59,3,3,0,0,0,1.14.2,7.85,7.85,0,0,0,1.19-.09,7.63,7.63,0,0,0,1.15-.35v.66a3.58,3.58,0,0,1-1.15.36,6.12,6.12,0,0,1-1.21.1,3.68,3.68,0,0,1-2.49-.9,3.17,3.17,0,0,1-.85-1.25,4.43,4.43,0,0,1-.27-1.61,3.55,3.55,0,0,1,.29-1.54,3.37,3.37,0,0,1,.81-1.17,3.71,3.71,0,0,1,1.23-.79,4.19,4.19,0,0,1,1.57-.27,4.44,4.44,0,0,1,1.49.25,3.2,3.2,0,0,1,1.15.74,2.66,2.66,0,0,1,.64,1,3.5,3.5,0,0,1,.2,1.24Zm-2.85.52a2.81,2.81,0,0,0,0-.41,1,1,0,0,0-.15-.34.72.72,0,0,0-.25-.24.85.85,0,0,0-.41-.09.63.63,0,0,0-.42.12.92.92,0,0,0-.27.32,1,1,0,0,0-.15.4,1.62,1.62,0,0,0,0,.44,2.41,2.41,0,0,0,0,.38.93.93,0,0,0,.13.35.85.85,0,0,0,.24.26.63.63,0,0,0,.38.09.83.83,0,0,0,.46-.11.86.86,0,0,0,.29-.31,1.06,1.06,0,0,0,.15-.42A3.23,3.23,0,0,0,76.64,165.33Z" transform="translate(0.01 0)"/><path class="c" d="M116.06,161.61H117v.93h-.94Zm0,6.76v-4.75H117v4.75Zm7.24-6.76h.93v.93h-.93Zm0,6.76v-4.75h.93v4.75Zm-9.22-.63a1.39,1.39,0,0,1-.6.55,1.89,1.89,0,0,1-.81.19,2,2,0,0,1-.77-.13,1.7,1.7,0,0,1-.57-.39,2.21,2.21,0,0,1-.51-.86,3.75,3.75,0,0,1-.16-1.1,3.22,3.22,0,0,1,.18-1.15,2.33,2.33,0,0,1,.53-.88,2.24,2.24,0,0,1,.55-.35,1.91,1.91,0,0,1,.75-.13,1.34,1.34,0,0,1,.4.06,3,3,0,0,1,.39.13,1.34,1.34,0,0,1,.6.51v-2.58h.81v6.78h-.73Zm0-1.74a3,3,0,0,0-.11-.84,1.26,1.26,0,0,0-.42-.66,1.19,1.19,0,0,0-.33-.22,1.12,1.12,0,0,0-.44-.09,1.38,1.38,0,0,0-.66.17,1.21,1.21,0,0,0-.42.42,3.14,3.14,0,0,0-.22.58,4.17,4.17,0,0,0,0,1.32,1.75,1.75,0,0,0,.22.59,1.06,1.06,0,0,0,.42.42,1.27,1.27,0,0,0,.66.16.85.85,0,0,0,.44-.09,1.06,1.06,0,0,0,.33-.22,1.59,1.59,0,0,0,.42-.66A3.27,3.27,0,0,0,114.08,166Zm8.28,3.08a1.15,1.15,0,0,1-.11.55,1,1,0,0,1-.29.4,1.26,1.26,0,0,1-.4.28,1.94,1.94,0,0,1-.48.16,4.59,4.59,0,0,1-.51.1h-1a2,2,0,0,1-.48-.1,1.93,1.93,0,0,1-.46-.16,1.49,1.49,0,0,1-.38-.28,1.31,1.31,0,0,1-.24-.34,1.43,1.43,0,0,1-.09-.5,1.13,1.13,0,0,1,.2-.64,1.24,1.24,0,0,1,.48-.4.9.9,0,0,1-.41-.31.81.81,0,0,1-.14-.5.78.78,0,0,1,.18-.55,1.16,1.16,0,0,1,.46-.36,1.78,1.78,0,0,1-.55-1.23,1.5,1.5,0,0,1,.13-.66,1.41,1.41,0,0,1,.33-.5,1.82,1.82,0,0,1,1.41-.55,1.74,1.74,0,0,1,.6.08,1.68,1.68,0,0,1,.48.2.87.87,0,0,1,.38-.5,1.09,1.09,0,0,1,.61-.16h.11a.21.21,0,0,1,.11,0v.64h-.18a.6.6,0,0,0-.39.11.42.42,0,0,0-.18.31,2.86,2.86,0,0,1,.24.42,2,2,0,0,1,.07.55,1.94,1.94,0,0,1-.11.63,1.49,1.49,0,0,1-.31.51,1.81,1.81,0,0,1-.59.4,1.93,1.93,0,0,1-.82.15h-.41a1.66,1.66,0,0,1-.38-.11,1.51,1.51,0,0,0-.28.15.31.31,0,0,0-.12.27.35.35,0,0,0,.07.26l.16.15.24.07h1.17a3.64,3.64,0,0,1,.87.11,1.4,1.4,0,0,1,.71.4,1.6,1.6,0,0,1,.28.4,5.42,5.42,0,0,0,0,.57Zm-.78,0a.7.7,0,0,0-.11-.42.73.73,0,0,0-.3-.22,1.37,1.37,0,0,0-.4-.09h-1.54a1,1,0,0,0-.42.28.69.69,0,0,0-.18.47.7.7,0,0,0,.2.5,1.27,1.27,0,0,0,.27.18l.33.09h1a1,1,0,0,0,.35-.06.92.92,0,0,0,.33-.11.71.71,0,0,0,.27-.18.58.58,0,0,0,.19-.46ZM121,165.2a1,1,0,0,0-1-1h-.08a1.06,1.06,0,0,0-.79.3,1,1,0,0,0-.3.75,1,1,0,0,0,.93,1.06h.16a1,1,0,0,0,.78-.31A1,1,0,0,0,121,165.2Zm7.05,3.2a2.53,2.53,0,0,1-.55,0,1.54,1.54,0,0,1-.64-.11,1,1,0,0,1-.4-.29,1.07,1.07,0,0,1-.21-.41,1.85,1.85,0,0,1,0-.47v-2.84h-.92v-.68h.92v-1.23l.81-.18v1.39h1.41v.68H127V167a.66.66,0,0,0,.14.49.71.71,0,0,0,.48.15h.8v.73a2.34,2.34,0,0,1-.38.09Zm5.72-.07a1.14,1.14,0,0,1-.26.09,1.31,1.31,0,0,1-.28,0,.58.58,0,0,1-.49-.22.73.73,0,0,1-.18-.51,1.62,1.62,0,0,1-.62.57,2,2,0,0,1-.92.22,1.77,1.77,0,0,1-.72-.13,1.72,1.72,0,0,1-.51-.33,1.52,1.52,0,0,1-.31-.48,1.4,1.4,0,0,1-.11-.53,1.59,1.59,0,0,1,.07-.48,1.18,1.18,0,0,1,.28-.45,1.85,1.85,0,0,1,.51-.37,2.27,2.27,0,0,1,.81-.18l1.44-.1v-.34a2.29,2.29,0,0,0,0-.37.73.73,0,0,0-.2-.35,1,1,0,0,0-.31-.18,1.59,1.59,0,0,0-.48-.07,1.36,1.36,0,0,0-.53.07.94.94,0,0,0-.33.2.76.76,0,0,0-.24.57h-.79a1.4,1.4,0,0,1,1.05-1.38,2.27,2.27,0,0,1,.82-.12,2.12,2.12,0,0,1,1.1.25,1.31,1.31,0,0,1,.57.66,2,2,0,0,1,.14.73v2.29a.31.31,0,0,0,.08.26.29.29,0,0,0,.18.07h.22v.62Zm-2.55-2.18a1.15,1.15,0,0,0-.37.06,1.22,1.22,0,0,0-.33.14,1,1,0,0,0-.24.26.85.85,0,0,0-.09.38.87.87,0,0,0,.22.57.91.91,0,0,0,.72.26,1.9,1.9,0,0,0,.53-.09,1.36,1.36,0,0,0,.75-.79,2,2,0,0,0,.09-.59v-.27Zm4.67,2.22h-.57a.89.89,0,0,1-.75-.29,1.37,1.37,0,0,1-.24-.86v-5.68h.81v5.62a.68.68,0,0,0,.09.37.46.46,0,0,0,.33.13h.33Z" transform="translate(0.01 0)"/><path class="c" d="M105.34,163.22a2.64,2.64,0,1,0,2.57,2.71v-.07a2.6,2.6,0,0,0-2.57-2.64m0,4.05a1.4,1.4,0,1,1,1.32-1.48v.09a1.35,1.35,0,0,1-1.31,1.39h0m-16.12-3.9h-1a.18.18,0,0,0-.18.14l-.79,2.42L86,163.35a.25.25,0,0,0-.22-.13h-.09a.26.26,0,0,0-.22.13l-1.34,2.58-.79-2.42a.22.22,0,0,0-.18-.14h-1c-.13,0-.19.09-.15.2l1.54,4.8a.22.22,0,0,0,.18.14h.15a.27.27,0,0,0,.22-.12l1.58-3,1.57,3a.25.25,0,0,0,.22.12h.15a.19.19,0,0,0,.18-.14l1.54-4.8a.15.15,0,0,0-.07-.19h-.06m2.2,0h-1a.21.21,0,0,0-.22.2v4.58a.21.21,0,0,0,.2.22h1a.21.21,0,0,0,.22-.2v-4.58a.22.22,0,0,0-.22-.22h0m4.18-.15a2.37,2.37,0,0,0-1.69.75l-.16-.46a.25.25,0,0,0-.2-.14H93.1a.21.21,0,0,0-.22.2v7.22a.22.22,0,0,0,.22.22h1a.22.22,0,0,0,.22-.22h0v-2.5a3.7,3.7,0,0,0,1.32.22,2.66,2.66,0,0,0,0-5.29m-.26,4.05a2.08,2.08,0,0,1-1.06-.28v-1.9a1.25,1.25,0,0,1,1.06-.62,1.41,1.41,0,0,1,0,2.8m6.21-4.05a1.93,1.93,0,0,0-1.45.75l-.16-.46a.25.25,0,0,0-.2-.14h-.46a.21.21,0,0,0-.22.2v4.58a.21.21,0,0,0,.2.22h1a.21.21,0,0,0,.22-.2V165a1.2,1.2,0,0,1,1.41-.38.23.23,0,0,0,.3-.11,6,6,0,0,1,.33-.76c.08-.19,0-.49-.94-.49M91.15,161a.78.78,0,1,0-.53,1.47l.12,0a.78.78,0,0,0,.41-1.5" transform="translate(0.01 0)"/><path class="b" d="M36.12,149.08l-.23-2.29a4.06,4.06,0,0,1-.76,1.08,4.57,4.57,0,0,1-1,.8,5.51,5.51,0,0,1-1.23.51,4.89,4.89,0,0,1-1.32.18,5.48,5.48,0,0,1-2.22-.45,5.31,5.31,0,0,1-1.71-1.13,4.61,4.61,0,0,1-1-1.32,7.13,7.13,0,0,1-.57-1.54,11.45,11.45,0,0,1-.27-1.64c0-.56-.08-1.1-.08-1.64A12.86,12.86,0,0,1,25.8,140a8.84,8.84,0,0,1,.27-1.62,7.65,7.65,0,0,1,.58-1.53,4.84,4.84,0,0,1,1-1.33,6.13,6.13,0,0,1,1.72-1.16,5.25,5.25,0,0,1,2.21-.46,6.3,6.3,0,0,1,2.11.34,5.46,5.46,0,0,1,1.65.92,4.56,4.56,0,0,1,1.11,1.4,4.75,4.75,0,0,1,.51,1.77H35.8a3.65,3.65,0,0,0-.31-1.25,4.53,4.53,0,0,0-.68-1,3.19,3.19,0,0,0-1.44-.89,6.53,6.53,0,0,0-1.81-.25,4.31,4.31,0,0,0-3.09,1.22,4.05,4.05,0,0,0-.84,1.17,7.33,7.33,0,0,0-.5,1.38,9.05,9.05,0,0,0-.23,1.46v1.43A12,12,0,0,0,27,143a10.73,10.73,0,0,0,.23,1.49,6.5,6.5,0,0,0,.5,1.4,4.08,4.08,0,0,0,.85,1.17,4.25,4.25,0,0,0,3.05,1.15,4.44,4.44,0,0,0,1.69-.31,3.52,3.52,0,0,0,1.29-.86,3.68,3.68,0,0,0,.7-1,5.39,5.39,0,0,0,.4-1.17,7.28,7.28,0,0,0,.17-1.23v-1.24H31.43v-1.07h5.51v7.71Zm23-10.61a4,4,0,0,1-.84,2.54A4.12,4.12,0,0,1,56,142.46l3,6.62H57.8l-2.92-6.34H49.73v6.34H48.64v-14.9h5.44a6.83,6.83,0,0,1,2.15.31,4.37,4.37,0,0,1,1.58.87,3.54,3.54,0,0,1,1,1.36,4.54,4.54,0,0,1,.29,1.75Zm-1.13,0A3,3,0,0,0,57,136a4.46,4.46,0,0,0-2.87-.83h-4.4v6.52h4.35A4.45,4.45,0,0,0,57,140.9a3,3,0,0,0,1-2.43Zm22.42,10.61-1.52-3.93h-7.2l-1.48,3.93H69.06l5.65-14.9h1.07l5.72,14.9ZM75.24,135.7l-3.18,8.42h6.41Zm19.89,13.38h-1l-5.34-14.9h1.15l4.73,13.33,4.67-13.33h1.15Zm15.87,0v-14.9h1.12v14.9Zm17.59-13.85v13.85H127.5V135.23h-4.73v-1h10.57v1Zm20.55,8v5.9h-1.07v-5.9l-5.15-9h1.17l4.54,7.93,4.54-7.93h1.12Z" transform="translate(0.01 0)"/></svg>