<svg id="Layer_1" data-name="Layer 1" xmlns="http://www.w3.org/2000/svg" viewBox="0 0 32 32"><defs><style>.cls-1{fill:#287a95;}.cls-2{fill:#095771;}.cls-3{fill:#012b3d;}</style></defs><title>Gravity Logo Secondary 32px</title><path class="cls-1" d="M4.52,20.44c.28.6,1.3.81,2.81.66a11,11,0,0,0,1.2,1.67C4,24,.74,24.08.11,22.73c-1-2.17,5.21-7.22,13.9-11.28A48.16,48.16,0,0,1,27.17,7.18a3,3,0,0,0-.51,2.4c-1.47-.95-6.6.19-12.21,2.81C8.24,15.28,3.79,18.89,4.52,20.44Zm22.53-9.88a4.39,4.39,0,0,1-1.35,2,10.55,10.55,0,0,1,.5,2A29,29,0,0,0,29.42,12,3.05,3.05,0,0,1,27.05,10.56Z"/><circle class="cls-2" cx="29.88" cy="8.84" r="2.12"/><path class="cls-3" d="M13.27,9.87c2.12-1,4.23-1.84,6.23-2.54A9.28,9.28,0,0,0,7.33,13,66,66,0,0,1,13.27,9.87Z"/><path class="cls-3" d="M24,11.08A32.32,32.32,0,0,0,15.19,14a32.22,32.22,0,0,0-7.9,4.91,9.1,9.1,0,0,0,.41,1.05,9.3,9.3,0,0,0,16.86-7.86A7.67,7.67,0,0,0,24,11.08Z"/></svg>