<?xml version="1.0" encoding="UTF-8" standalone="no"?>
<svg width="299" height="34" viewBox="0 0 299 34" version="1.1" xmlns="http://www.w3.org/2000/svg" xmlns:xlink="http://www.w3.org/1999/xlink" id="buildit-logo">
   <desc>Logo</desc>
   <title>Buildit | Wipro Digital</title>
    <g id="Page-1" stroke="none" stroke-width="1" fill="none" fill-rule="evenodd">
        <g id="buildit-wipro-digital">
            <path d="M194.061717,7.50327377 C189.269207,7.50327377 185.375293,11.4970323 185.375293,16.4393084 C185.375293,21.3815845 189.269207,25.375343 194.061717,25.375343 C198.854227,25.375343 202.748142,21.3815845 202.748142,16.4393084 C202.748142,11.4970323 198.854227,7.50327377 194.061717,7.50327377 M194.061717,21.1569356 C191.590579,21.1569356 189.5937,19.0352514 189.5937,16.4393084 C189.5937,13.8433654 191.590579,11.7216812 194.061717,11.7216812 C196.532855,11.7216812 198.529735,13.8433654 198.529735,16.4393084 C198.529735,19.0352514 196.532855,21.1569356 194.061717,21.1569356 M139.531937,8.00249358 L136.336931,8.00249358 C136.04556,8.01751618 135.790764,8.20371316 135.687945,8.4767524 L133.04208,16.6639573 L128.52414,7.9525716 C128.375402,7.68902511 128.102452,7.51960813 127.800272,7.50327377 L127.475779,7.50327377 C127.173598,7.51960813 126.900649,7.68902511 126.75191,7.9525716 L122.20901,16.6639573 L119.563145,8.48673679 C119.460325,8.21369756 119.205529,8.02750058 118.914159,8.01247797 L115.719152,8.01247797 C115.542463,7.99830577 115.370841,8.07569522 115.264487,8.21750086 C115.158133,8.3593065 115.131893,8.54573193 115.194971,8.71138571 L120.411819,24.9110686 C120.514638,25.1841078 120.769434,25.3703048 121.060804,25.3853274 L121.535063,25.3853274 C121.837244,25.368993 122.110193,25.1995761 122.258932,24.9360296 L127.600584,14.6521015 L132.967197,24.9360296 C133.115935,25.1995761 133.388885,25.368993 133.691066,25.3853274 L134.165324,25.3853274 C134.460013,25.3798983 134.719623,25.1901834 134.81431,24.9110686 L140.056118,8.7363467 C140.129258,8.56801893 140.108093,8.37358324 140.000451,8.22493371 C139.892808,8.07628418 139.714682,7.99550998 139.531937,8.01247797 M147.020234,8.01247797 L143.800267,8.01247797 C143.386699,8.01247797 143.051437,8.34774046 143.051437,8.76130769 L143.051437,24.1622389 C143.051437,24.5758061 143.386699,24.9110686 143.800267,24.9110686 L147.020234,24.9110686 C147.433802,24.9110686 147.769064,24.5758061 147.769064,24.1622389 L147.769064,8.75132329 C147.758568,8.34218247 147.429375,8.0129895 147.020234,8.00249358 M161.123194,7.50327377 C158.952194,7.521685 156.884646,8.43357325 155.407127,10.0243338 L155.407127,10.0243338 L154.833025,8.45179141 C154.713119,8.18143999 154.454037,7.99912343 154.159078,7.97753259 L152.661418,7.97753259 C152.247851,7.97753259 151.912589,8.31279507 151.912589,8.7263623 L151.912589,33.0633281 C151.912589,33.4768953 152.247851,33.8121578 152.661418,33.8121578 L155.881386,33.8121578 C156.294953,33.8121578 156.630216,33.4768953 156.630216,33.0633281 L156.630216,24.6265133 C158.067394,25.1234628 159.577563,25.3765636 161.098233,25.375343 C165.616172,25.375343 169.285438,21.3815845 169.285438,16.4393084 C169.285438,11.4970323 165.641133,7.50327377 161.123194,7.50327377 M160.249559,21.1569356 C158.987882,21.1701705 157.746044,20.8424631 156.655177,20.208418 L156.655177,13.8184044 C157.403378,12.5395395 158.767987,11.747308 160.249559,11.7316656 C162.645815,11.7316656 164.567811,13.8533498 164.567811,16.4492928 C164.567811,19.0452358 162.645815,21.16692 160.249559,21.16692 M181.216792,7.51325816 C178.121629,7.51325816 176.324437,10.0343182 176.324437,10.0343182 L175.750335,8.4617758 C175.630429,8.19142439 175.371347,8.00910782 175.076388,7.98751698 L173.578728,7.98751698 C173.165161,7.98751698 172.829899,8.32277947 172.829899,8.7363467 L172.829899,24.1372779 C172.829899,24.5508451 173.165161,24.8861076 173.578728,24.8861076 L176.798696,24.8861076 C177.212263,24.8861076 177.547526,24.5508451 177.547526,24.1372779 L177.547526,13.3691066 C178.676298,11.932829 180.607595,11.3969195 182.315075,12.0461741 C182.496094,12.1362566 182.706399,12.1470957 182.89572,12.0761004 C183.085041,12.0051051 183.236363,11.8586558 183.313515,11.6717592 C183.463281,11.3472663 184.162188,9.74976292 184.411798,9.15069914 C184.661408,8.55163537 184.311954,7.50327377 181.216792,7.50327377 M146.061732,0.0898595661 C144.670138,-0.281485405 143.240935,0.545339969 142.869176,1.9368243 C142.497417,3.32830863 143.323817,4.75775726 144.71519,5.12993048 C146.106564,5.5021037 147.536258,4.67612916 147.908846,3.28486636 C148.09,2.61615465 147.996873,1.90280307 147.650117,1.30300926 C147.303361,0.703215449 146.731637,0.266553165 146.061732,0.0898595661" id="Shape" fill="#000000" fill-rule="nonzero"></path>
            <g id="Group" transform="translate(210.421151, 1.248050)" fill="#000000" fill-rule="nonzero">
                <path d="M12.323241,23.4633311 L12.1285453,21.3216781 C11.6373538,22.1547276 10.9006583,22.815574 10.0193416,23.2137212 C9.15350359,23.639151 8.20334563,23.865176 7.23868727,23.8751875 C6.32399918,23.893056 5.41449974,23.7337029 4.56037298,23.4059209 C3.82110415,23.1104044 3.15254955,22.6621496 2.59843912,22.0904767 C1.78923016,21.2389987 1.18408385,20.2147736 0.828704887,19.0951578 C0.421978423,17.8599236 0.219629427,16.5665763 0.229641113,15.2661418 C0.217986601,13.9156649 0.431412822,12.5726826 0.861154175,11.2923521 C1.23557834,10.1475801 1.8753379,9.10754314 2.72823627,8.25709568 C3.29543817,7.74482416 3.94974779,7.33820539 4.66021694,7.05647204 C5.4829883,6.74338768 6.35858034,6.59251122 7.23868727,6.6121664 C7.70264226,6.61372116 8.16490816,6.66815465 8.61653395,6.77441284 C9.07940916,6.88209652 9.53080245,7.03423278 9.96442744,7.22870287 C10.3897,7.42001538 10.7882634,7.66586607 11.1500745,7.96005989 C11.4933305,8.23922505 11.7840946,8.57732284 12.0087326,8.95849952 L12.0087326,0.0249609906 L14.7544415,0.0249609906 L14.7544415,23.4633311 L12.323241,23.4633311 Z M12.1609946,15.2536613 C12.1672488,14.2619115 12.0362084,13.2740683 11.7716032,12.3182488 C11.5321694,11.431016 11.0353594,10.6345566 10.3438345,10.029326 C10.0103982,9.72549302 9.6334989,9.47310511 9.22558212,9.2804963 C8.74159791,9.06140817 8.21403182,8.95555349 7.6829929,8.97098001 C6.88950109,8.94228317 6.10348576,9.13317261 5.41154276,9.5226179 C4.8249015,9.87417735 4.33707918,10.3688704 3.99375849,10.960371 C3.63367611,11.5872002 3.38059811,12.2696672 3.24492877,12.9797151 C2.96530754,14.4701976 2.96530754,15.9996836 3.24492877,17.4901661 C3.37803634,18.2064357 3.63120956,18.8950668 3.99375849,19.5269829 C4.33508582,20.1292365 4.82709496,20.6324276 5.42152715,20.9872009 C6.11303643,21.3777454 6.89936672,21.5687114 7.69297729,21.5388388 C8.22375041,21.554176 8.75111421,21.4492152 9.23556651,21.2318186 C9.64086602,21.0336591 10.0143874,20.7762322 10.3438345,20.4680123 C11.0352897,19.8637461 11.5321358,19.0680974 11.7716032,18.1815855 C12.0360284,17.2248779 12.1670634,16.2362359 12.1609946,15.2436769 L12.1609946,15.2536613 Z" id="Shape"></path>
                <path d="M20.0137222,3.26988977 L20.0137222,0.0249609906 L23.2262017,0.0249609906 L23.2262017,3.26988977 L20.0137222,3.26988977 Z M20.2184024,23.4633311 L20.2184024,7.03400714 L23.0414904,7.03400714 L23.0414904,23.4633311 L20.2184024,23.4633311 Z" id="Shape"></path>
                <path d="M42.5010786,25.8870433 C42.5141662,26.5431633 42.3748956,27.1933775 42.0942145,27.7865747 C41.8423532,28.3090492 41.5048851,28.7857228 41.0957749,29.1968707 C40.6950728,29.5944174 40.2279183,29.9188068 39.7154321,30.1553727 C39.1795043,30.4048541 38.6201307,30.6005095 38.0455418,30.7394599 C37.458435,30.8795982 36.8619834,30.9771993 36.260831,31.0315035 C35.655111,31.0830895 35.0602074,31.1097146 34.4761202,31.1113787 C33.9352987,31.1113787 33.3778366,31.0847536 32.8037338,31.0315035 C32.2402592,30.9784485 31.681879,30.8807946 31.1338435,30.7394599 C30.5960228,30.5986169 30.0740942,30.4028937 29.5762777,30.1553727 C29.0878854,29.9113874 28.6420199,29.5902631 28.2558413,29.204359 C27.9016591,28.8483166 27.6157106,28.4303919 27.4121598,27.971286 C27.184213,27.438619 27.0735444,26.8631419 27.087667,26.2839231 C27.0657662,25.4888201 27.3051345,24.7084619 27.769102,24.0623949 C28.1996092,23.4657016 28.7671747,22.9811737 29.4240157,22.6496028 C28.8665819,22.439779 28.3854786,22.0665543 28.0436729,21.5787764 C27.6890313,21.0882812 27.5017357,20.4966371 27.5095077,19.8914134 C27.4932906,19.2004496 27.7105005,18.524197 28.1260442,17.9719132 C28.5365758,17.4316008 29.0707013,16.9976238 29.68361,16.706391 C29.0791613,16.1695531 28.6024205,15.5043334 28.2882906,14.7594337 C27.9658157,14.0337743 27.795895,13.2495904 27.7890708,12.4555343 C27.7660548,11.6664442 27.9097994,10.8813775 28.2109115,10.1516349 C28.8268111,8.76125076 29.9617305,7.66664026 31.3734691,7.10140182 C32.27969,6.7560848 33.2445409,6.59075445 34.2140298,6.6146625 C34.9193683,6.60259126 35.6230688,6.68656507 36.3057608,6.86427241 C36.8927415,7.02608204 37.4552586,7.26620129 37.9781472,7.57815674 C38.2260408,6.88684282 38.6854363,6.29120069 39.2910953,5.87581718 C39.9011207,5.47014834 40.6204094,5.26028324 41.3528731,5.27425731 C41.4826702,5.27425731 41.6174596,5.27425731 41.7572411,5.29173 C41.8970227,5.30920269 42.0343081,5.31918709 42.1641053,5.33915588 L42.1641053,7.58564504 C42.0682888,7.56387234 41.9703205,7.55298697 41.8720617,7.55319575 L41.5475688,7.55319575 C41.0654309,7.53439913 40.5908905,7.67764002 40.1996753,7.96005989 C39.846489,8.22271503 39.6085722,8.61178943 39.535713,9.04586298 C39.88564,9.48758633 40.154394,9.98790827 40.3294725,10.5235536 C40.5249046,11.1476495 40.6184602,11.7991672 40.6065395,12.4530382 C40.6146106,13.9028303 40.0804301,15.3032735 39.10888,16.379402 C38.5369975,16.985116 37.8461058,17.4661058 37.0795515,17.7921941 C36.1702082,18.1677177 35.192593,18.3496391 34.2090376,18.3263593 C33.7362276,18.3329455 33.2636837,18.3003851 32.7962455,18.2290114 C32.3394163,18.1441458 31.8896659,18.0248242 31.4508481,17.8720693 C31.117881,17.9977277 30.8057056,18.1727479 30.5247954,18.3912579 C30.2231615,18.6086958 30.0477094,18.9605331 30.0555287,19.3322872 C30.0390281,19.6392978 30.1270126,19.9428443 30.3051387,20.1934414 C30.4671204,20.3982526 30.6725933,20.5645067 30.9066985,20.6801807 C31.1559299,20.8018254 31.424605,20.8787105 31.700458,20.9073257 C31.9756089,20.9383829 32.2522654,20.9542157 32.5291629,20.9547516 L35.7740917,20.9547516 C36.7689628,20.9577778 37.7600396,21.0775783 38.7269769,21.3116938 C39.6631393,21.5189563 40.519509,21.9922132 41.1931227,22.6745638 C41.5884152,23.073389 41.9073495,23.5412158 42.1341521,24.0549066 C42.3849469,24.6327056 42.5100212,25.2572261 42.5010786,25.8870433 Z M39.8077878,25.8870433 C39.837888,25.3787646 39.6944287,24.8753372 39.4009236,24.4592747 C39.1302901,24.1118794 38.7718233,23.8430293 38.3625464,23.6804918 C37.9163808,23.5028507 37.4459931,23.3934582 36.967227,23.3559989 C36.4580228,23.3143972 35.958803,23.2927644 35.4695676,23.2911003 L31.6630165,23.2911003 C31.0952454,23.4656945 30.588817,23.7981193 30.2027986,24.2496023 C29.7975965,24.6978007 29.5772926,25.2828993 29.5862621,25.8870433 C29.5668134,26.5297052 29.8133526,27.1519231 30.2676972,27.6068556 C30.5328493,27.8700768 30.846478,28.0794452 31.1912538,28.223392 C31.5519962,28.3758572 31.9275923,28.49046 32.3120023,28.5653576 C32.7027104,28.6399828 33.0979791,28.688349 33.4951533,28.7101314 C33.8970252,28.7325962 34.2789284,28.7425806 34.648351,28.7425806 C35.0177737,28.7425806 35.3722197,28.7425806 35.7840761,28.7101314 C36.1986639,28.6878695 36.6109137,28.6336261 37.017149,28.5478849 C37.4165183,28.4644166 37.807507,28.3449479 38.1853234,28.1909428 C38.536657,28.0496296 38.8564964,27.8400796 39.1263527,27.5744063 C39.5766755,27.130127 39.8232964,26.5194468 39.8077878,25.8870433 Z M37.9257291,12.4530382 C37.9551326,11.4939218 37.5949553,10.5637639 36.9272895,9.87456787 C36.261663,9.1923008 35.3464267,8.85116726 34.1815805,8.85116726 C33.0566718,8.85116726 32.153084,9.1923008 31.4708169,9.87456787 C30.7903578,10.5568816 30.4218487,11.4898961 30.4524085,12.4530382 C30.4281176,13.421662 30.7868975,14.3607686 31.4508481,15.0664539 C32.1164745,15.7686898 33.0317109,16.1198077 34.1965571,16.1198077 C35.1912987,16.1727561 36.1626597,15.8061462 36.8743598,15.1091545 C37.58606,14.4121629 37.9728722,13.4486686 37.9407057,12.4530382 L37.9257291,12.4530382 Z" id="Shape"></path>
                <path d="M45.2268188,3.26988977 L45.2268188,0.0249609906 L48.4392983,0.0249609906 L48.4392983,3.26988977 L45.2268188,3.26988977 Z M45.4290028,23.4633311 L45.4290028,7.03400714 L48.2520909,7.03400714 L48.2520909,23.4633311 L45.4290028,23.4633311 Z" id="Shape"></path>
                <path d="M62.1977963,23.2262017 C61.7542022,23.3528038 61.3042898,23.456117 60.8499028,23.535718 C60.2123154,23.6411681 59.5666025,23.6896174 58.9204182,23.6804918 C58.1658525,23.7051718 57.4144071,23.5725638 56.7138667,23.2911003 C56.1812857,23.0720992 55.7082294,22.7299246 55.3335239,22.2926607 C54.9967316,21.8794873 54.7532114,21.3984073 54.6196396,20.8823647 C54.4792222,20.3470673 54.4087449,19.7958342 54.4099673,19.2424276 L54.4099673,9.40280515 L51.2299371,9.40280515 L51.2299371,7.03400714 L54.4149594,7.03400714 L54.4149594,2.84804902 L57.1606684,2.19906327 L57.1606684,7.03400714 L62.0280616,7.03400714 L62.0280616,9.40280515 L57.1606684,9.40280515 L57.1606684,18.9104465 C57.1606684,19.7108622 57.3387235,20.284133 57.6948336,20.6302587 C58.0509437,20.9763844 58.6084059,21.1494473 59.36722,21.1494473 C59.669248,21.1494473 59.9837564,21.1494473 60.3082493,21.116998 C60.6327422,21.0845487 60.9347702,21.0645799 61.2168294,21.0196502 C61.5413223,20.9772165 61.8658151,20.9223023 62.190308,20.8574037 L62.1977963,23.2262017 Z" id="Path"></path>
                <path d="M79.37595,23.2911003 C79.0991655,23.4332288 78.8044606,23.537341 78.4998193,23.6006166 C78.1884094,23.6559954 77.8725814,23.6827321 77.5562938,23.6804918 C76.8931768,23.716819 76.2497556,23.4484205 75.8090245,22.9516308 C75.3857632,22.4607803 75.1606092,21.8298153 75.1775114,21.1818966 L75.1101167,21.1818966 C74.6089383,22.0299739 73.8705327,22.7128472 72.9859364,23.1463266 C72.0062422,23.6415616 70.9210068,23.8916711 69.8233789,23.8751875 C68.9706423,23.8961322 68.1222256,23.7476592 67.3272799,23.4383701 C66.6723662,23.1770383 66.0777755,22.7846084 65.5800105,22.2851724 C65.1224255,21.8214388 64.7640309,21.2694092 64.5266567,20.662708 C64.2909082,20.0745476 64.1697146,19.4467468 64.1697146,18.8130986 C64.1759427,18.2506542 64.2685466,17.6925053 64.4442855,17.1581849 C64.6388684,16.5578443 64.9665195,16.0091994 65.4027875,15.5531932 C65.9167554,15.0252114 66.5278362,14.6014382 67.2024749,14.3051437 C68.0913599,13.927441 69.0427459,13.7183731 70.0080903,13.6886072 L75.0002884,13.3965636 L75.0002884,12.1934439 C74.9969279,11.7568148 74.9475653,11.3217553 74.8530185,10.8954724 C74.7507422,10.4328315 74.5074146,10.0133312 74.1566069,9.69484874 C73.8493916,9.4208465 73.4903696,9.21120483 73.100757,9.07831227 C72.5713595,8.91212483 72.0179601,8.83535754 71.463316,8.85116726 C70.8350684,8.83041051 70.208296,8.92429948 69.6137066,9.12823425 C69.1904666,9.27812296 68.8035068,9.51540162 68.4779815,9.82464589 C67.9456477,10.343989 67.6519981,11.0604942 67.6667493,11.8040524 L64.9734585,11.8040524 C64.9760798,11.1296538 65.1135659,10.4625915 65.3778265,9.84211858 C65.6262362,9.29202255 65.9721062,8.79139897 66.398731,8.36442794 C67.0092769,7.75206946 67.7623389,7.30091841 68.590306,7.05147984 C69.5187877,6.75432752 70.488462,6.60605412 71.463316,6.6121664 C73.0641475,6.6121664 74.3288377,6.91003422 75.2573866,7.50576987 C76.1321233,8.03368971 76.8232033,8.81801756 77.2367931,9.75225902 C77.5751775,10.552727 77.7451127,11.4142981 77.7360129,12.2833035 L77.7360129,20.2408673 C77.7360129,20.6751885 77.8158881,20.9672321 77.9856228,21.116998 C78.1688467,21.2764137 78.4071097,21.3579247 78.6495852,21.344143 L78.8767302,21.344143 C78.9537351,21.3462433 79.0305386,21.3352713 79.1038752,21.3116938 L79.3534851,21.2467952 L79.37595,23.2911003 Z M75.0277455,15.5357205 L70.6146423,15.7853304 C70.1863741,15.8101147 69.7620546,15.8812531 69.3491201,15.9974989 C68.9343773,16.1067151 68.5399339,16.2820232 68.1809458,16.5166875 C67.8338311,16.7435737 67.5448469,17.0488026 67.3372643,17.4077948 C67.1110439,17.8138683 66.9989173,18.2735874 67.0127714,18.7382156 C67.0093884,19.4633665 67.2763712,20.1637513 67.7616011,20.7026456 C68.2608209,21.2734202 69.0928539,21.5596396 70.2577002,21.5613101 C70.8836044,21.5622831 71.5047375,21.4524228 72.092333,21.2368108 C72.6773899,21.0289182 73.2056733,20.6869872 73.6349222,20.2383712 C74.1217826,19.7569985 74.488601,19.1678659 74.7057487,18.5185589 C74.9213463,17.8697409 75.0309168,17.1904038 75.0302447,16.5067031 L75.0277455,15.5357205 Z" id="Shape"></path>
                <path d="M88.446774,23.4633311 C88.288113,23.5116657 88.1250812,23.5442721 87.9600347,23.560679 C87.4772514,23.6373145 86.9885004,23.6698979 86.4998167,23.6580269 C85.2900407,23.6580269 84.41391,23.3119011 83.8714244,22.6196497 C83.3289389,21.9273982 83.0585282,20.9289586 83.0601846,19.6243308 L83.0601846,0.0249609906 L85.8059012,0.0249609906 L85.8059012,19.4695726 C85.7740206,19.9154357 85.8879046,20.3595831 86.1303941,20.7350949 C86.3483867,21.016322 86.7377782,21.1569356 87.2985684,21.1569356 L88.2071485,21.1569356 C88.2841423,21.1588456 88.3609142,21.1478782 88.4342935,21.1244863 L88.446774,23.4633311 Z" id="Path"></path>
            </g>
            <path d="M103.50574,1.5975034 L103.553165,26.9478854" id="Path" stroke="#0060FF" stroke-width="2.116692" stroke-linecap="square"></path>
            <g id="Group" transform="translate(0.000000, 1.248050)" fill="#0060FF" fill-rule="nonzero">
                <path d="M15.6081074,15.0489812 C15.6326629,16.506468 15.3784954,17.9552226 14.8592777,19.3173106 C14.3843423,20.5297982 13.6014341,21.5974785 12.5878275,22.4149695 C12.0516526,22.8625343 11.4441466,23.2169128 10.7906362,23.4633311 C10.0577844,23.7315971 9.28204724,23.8635655 8.50171339,23.8527226 C7.57746142,23.8545029 6.66203509,23.6729448 5.80842251,23.3185574 C4.96446738,22.9797242 4.24903049,22.38309 3.76411738,21.6137217 L3.49453868,23.4633311 L0,23.4633311 L0,0.0249609906 L4.05616097,0.0249609906 L4.05616097,7.81279005 C4.53059306,7.27862663 5.13130886,6.87185622 5.80343031,6.6296391 C6.6560593,6.29935316 7.56507564,6.13908815 8.4792485,6.15787637 C9.26755228,6.14625018 10.0522247,6.26690411 10.8006206,6.51481854 C11.4553852,6.73735755 12.0649304,7.07552408 12.600308,7.51325816 C14.6055076,9.18564453 15.6081074,11.6975522 15.6081074,15.0489812 Z M11.4820638,14.9765943 C11.4829376,14.2466828 11.4118712,13.5184615 11.2698872,12.8024921 C11.1371631,12.106006 10.8430831,11.4503103 10.4112292,10.8879841 C10.0964744,10.5102601 9.71696667,10.1916089 9.29048069,9.94695474 C8.80017111,9.6753504 8.24575033,9.54084085 7.685489,9.55756329 C7.00105288,9.52424998 6.32249185,9.69823999 5.73853173,10.0567831 C5.24691791,10.3851677 4.84532187,10.8313856 4.57035737,11.3547546 C4.28288133,11.9006647 4.09042911,12.4915268 4.00124679,13.102024 C3.90833735,13.7225617 3.86161515,14.3491398 3.86146524,14.9765943 C3.86429286,15.8235733 3.96225493,16.6675542 4.15350883,17.4926622 C4.31812754,18.2935954 4.72611344,19.0241343 5.32168319,19.5843932 C5.61258053,19.8511066 5.95136504,20.060306 6.32012281,20.2009297 C6.75638794,20.3605361 7.21854542,20.4375624 7.6829929,20.4280747 C8.24325424,20.4447971 8.79767501,20.3102876 9.28798459,20.0386832 C9.7150269,19.7948265 10.0946675,19.4760637 10.4087331,19.0976539 C10.8429585,18.5311175 11.1371712,17.8699941 11.2673911,17.1681693 C11.4097496,16.4463199 11.4816421,15.7123473 11.4820638,14.9765943 L11.4820638,14.9765943 Z" id="Shape"></path>
                <path d="M29.6261997,23.4633311 L29.3341561,21.2567796 C28.9151671,22.0861758 28.2452037,22.7622536 27.4196481,23.1887602 C26.5196467,23.6612597 25.5155869,23.9006893 24.4992122,23.8851719 C23.6665958,23.8964827 22.8398175,23.7446947 22.0655157,23.4383701 C21.3749088,23.1639526 20.7498094,22.7472196 20.2308829,22.2152816 C19.714821,21.6693179 19.3171177,21.0226252 19.0627085,20.3157502 C18.7835549,19.5239766 18.6466566,18.6890659 18.6583405,17.8496044 L18.6583405,6.57971712 L22.7145014,6.57971712 L22.7145014,16.9310399 C22.7145014,17.9294795 22.93083,18.7140867 23.3634872,19.2848613 C23.7961443,19.855636 24.5532944,20.1418553 25.6349373,20.1435194 C26.0537982,20.1532966 26.4694222,20.0679529 26.8505376,19.8939095 C27.1673287,19.7454876 27.4567848,19.5446405 27.7066995,19.2998379 C28.2094713,18.8437065 28.5583238,18.2428081 28.7051392,17.5800257 C28.8682569,16.8997353 28.9520184,16.2028389 28.9547491,15.5032712 L28.9547491,6.57971712 L33.01091,6.57971712 L33.01091,23.4633311 L29.6261997,23.4633311 Z" id="Path"></path>
                <path d="M37.4140288,4.2433684 L37.4140288,0.0574102783 L41.7622333,0.0574102783 L41.7622333,4.2433684 L37.4140288,4.2433684 Z M37.5438259,23.4633311 L37.5438259,6.57971712 L41.6648855,6.57971712 L41.6648855,23.4633311 L37.5438259,23.4633311 Z" id="Shape"></path>
                <path d="M52.4704983,23.4208975 C52.0586419,23.5082609 51.7616062,23.5681673 51.5768948,23.6006166 C51.2815311,23.6394312 50.9836025,23.6552874 50.6857875,23.6480425 C49.2996204,23.6480425 48.1855282,23.2911003 47.3435108,22.577216 C46.5014934,21.8633316 46.0796527,20.7059737 46.0779886,19.1051422 L46.0779886,0 L50.1715911,0 L50.1715911,18.4237071 C50.1499056,18.8390731 50.2515123,19.2515788 50.4636346,19.6093542 C50.6583304,19.9013978 51.1001399,20.0461715 51.7940554,20.0461715 C51.924025,20.0479781 52.054,20.042979 52.1834469,20.0311949 C52.2802509,20.0183863 52.3778498,20.0125471 52.4754905,20.0137222 L52.4704983,23.4208975 Z" id="Path"></path>
                <path d="M66.1640977,23.4633311 L65.9144878,21.6137217 C65.4282859,22.3819608 64.7132585,22.9782535 63.8701827,23.3185574 C63.0164546,23.6725641 62.1011052,23.854107 61.1768918,23.8527226 C60.388387,23.8640372 59.6043789,23.7321005 58.863008,23.4633311 C58.2025366,23.2232961 57.5879635,22.8721115 57.0458479,22.4249539 C56.0365184,21.6089875 55.2613911,20.5401731 54.7993587,19.327295 C54.2918463,17.9625567 54.0446245,16.514785 54.0704978,15.0589656 C54.0704978,11.7058725 55.0764257,9.19646096 57.0882815,7.53073086 C57.6236592,7.09299677 58.2332043,6.75483024 58.887969,6.53229123 C60.5431327,6.02057878 62.3197982,6.0608779 63.9500578,6.64711179 C64.586639,6.88523859 65.1591632,7.26806077 65.6224442,7.76536417 L65.6224442,0.0249609906 L69.6786052,0.0249609906 L69.6786052,23.4633311 L66.1640977,23.4633311 Z M65.8071555,14.9765943 C65.8052469,14.3522375 65.7560159,13.7289234 65.6598857,13.1120083 C65.5704531,12.5019038 65.3789025,11.9112191 65.0932712,11.364739 C64.8183067,10.84137 64.4167107,10.3951521 63.9250969,10.0667675 C63.3408319,9.70894422 62.6624965,9.53501207 61.9781396,9.56754769 C61.4170891,9.55086782 60.8618757,9.68536052 60.3706518,9.95693914 C59.9453915,10.2023128 59.5668233,10.5208847 59.2523994,10.8979685 C58.819814,11.460153 58.5248891,12.1158267 58.3912452,12.8124765 C58.251314,13.5287064 58.1810953,14.2568076 58.1815705,14.9865787 C58.1815705,15.7221108 58.2517882,16.4559632 58.3912452,17.1781537 C58.5222971,17.8801715 58.8173639,18.5412924 59.2523994,19.1076383 C59.566145,19.4853966 59.9448428,19.8040775 60.3706518,20.0486676 C60.8618757,20.3202462 61.4170891,20.4547389 61.9781396,20.4380591 C62.662386,20.4695163 63.3404099,20.295664 63.9250969,19.9388393 C64.4156046,19.6091786 64.8169216,19.1632708 65.0932712,18.6408678 C65.3805002,18.0870924 65.5720695,17.4887548 65.6598857,16.8711335 C65.7562738,16.2441907 65.8055019,15.6109012 65.8071555,14.9765943 Z" id="Shape"></path>
                <path d="M74.0817239,4.2433684 L74.0817239,0.0574102783 L78.4299285,0.0574102783 L78.4299285,4.2433684 L74.0817239,4.2433684 Z M74.2115211,23.4633311 L74.2115211,6.57971712 L78.3325806,6.57971712 L78.3325806,23.4633311 L74.2115211,23.4633311 Z" id="Shape"></path>
                <path d="M92.3831222,23.2262017 C91.2496747,23.5240672 90.0829754,23.6767195 88.9110484,23.6804918 C87.2020526,23.6804918 85.9257139,23.2212095 85.0820325,22.3026451 C84.238351,21.3840806 83.8165102,20.1127342 83.8165102,18.4886057 L83.8165102,9.92199375 L80.7338279,9.92199375 L80.7338279,6.57971712 L83.8165102,6.57971712 L83.8165102,2.29641113 L87.8726712,1.29797151 L87.8726712,6.57971712 L92.1160396,6.57971712 L92.1160396,9.92199375 L87.8626868,9.92199375 L87.8626868,18.1316636 C87.8626868,18.7806493 88.0124528,19.252412 88.3169768,19.5444556 C88.6215009,19.8364992 89.0957598,19.981273 89.7447455,19.981273 C90.1765706,19.981273 90.5834348,19.981273 90.9603457,19.9488237 C91.3372567,19.9163744 91.8090194,19.8839251 92.3731378,19.8190265 L92.3831222,23.2262017 Z" id="Path"></path>
            </g>
        </g>
    </g>
</svg>