<?xml version="1.0" encoding="utf-8"?>
<!--Generator: Adobe Illustrator 23.0.3, SVG Export Plug-In . SVG Version: 6.00 Build 0)-->
<svg version="1.1" xmlns="http://www.w3.org/2000/svg" xmlns:xlink="http://www.w3.org/1999/xlink" x="0px" y="0px" viewBox="0 0 299 34" style="enable-background:new 0 0 299 34" xml:space="preserve">
  <style type="text/css">
    .grav-svg-hl-1{fill:#0060FF;}
  </style>
  <title>buildit | wipro digital</title>
  <path class="grav-svg-hl-1" id="svg-logo-buildit" d="M12.7,8.5c-0.5-0.4-1.1-0.8-1.8-1c-0.7-0.2-1.5-0.4-2.3-0.4c-1,0-1.9,0.2-2.7,0.5C5.1,7.9,4.5,8.3,4.1,8.8V1
	H0.1v23.4h3.5l0.3-1.8c0.5,0.8,1.2,1.3,2,1.7c0.9,0.4,1.8,0.5,2.7,0.5c0.8,0,1.6-0.1,2.3-0.4c0.7-0.3,1.3-0.6,1.8-1
	c1-0.8,1.8-1.9,2.3-3.1c0.5-1.2,0.7-2.7,0.7-4.3C15.7,12.6,14.7,10.1,12.7,8.5z M11.3,18.1c-0.1,0.7-0.4,1.4-0.9,1.9
	c-0.3,0.4-0.7,0.7-1.1,0.9c-0.4,0.3-1,0.4-1.6,0.4c-0.5,0-1-0.1-1.4-0.2c-0.4-0.2-0.7-0.4-1-0.6c-0.6-0.5-1-1.2-1.2-2.1
	c-0.2-0.9-0.3-1.7-0.3-2.5c0-0.6,0-1.2,0.1-1.9c0.1-0.6,0.3-1.2,0.6-1.8c0.3-0.5,0.7-1,1.2-1.3c0.5-0.3,1.1-0.5,1.9-0.5
	c0.6,0,1.2,0.1,1.6,0.4c0.4,0.3,0.8,0.6,1.1,0.9c0.4,0.6,0.7,1.2,0.9,1.9c0.1,0.7,0.2,1.4,0.2,2.2C11.5,16.7,11.5,17.4,11.3,18.1z
	 M29.1,7.5h4.1v16.9h-3.4l-0.3-2.2c-0.4,0.8-1,1.5-1.9,1.9c-0.9,0.5-1.8,0.7-2.9,0.7c-0.9,0-1.7-0.1-2.4-0.4
	c-0.7-0.3-1.3-0.7-1.8-1.2c-0.5-0.5-0.9-1.2-1.2-1.9c-0.3-0.7-0.4-1.6-0.4-2.5V7.5h4.1v10.3c0,1,0.2,1.8,0.6,2.4
	c0.4,0.6,1.2,0.9,2.3,0.9c0.5,0,0.9-0.1,1.2-0.2c0.3-0.2,0.6-0.4,0.9-0.6c0.5-0.5,0.8-1,1-1.7c0.2-0.7,0.2-1.4,0.2-2.1V7.5z M37.6,1
	h4.3v4.2h-4.3V1z M37.7,7.5h4.1v16.9h-4.1V7.5z M52.4,21c0.1,0,0.2,0,0.3,0v3.4c-0.4,0.1-0.7,0.1-0.9,0.2c-0.2,0-0.5,0-0.9,0
	c-1.4,0-2.5-0.4-3.3-1.1c-0.8-0.7-1.3-1.9-1.3-3.5V0.9h4.1v18.4c0,0.5,0.1,0.9,0.3,1.2c0.2,0.3,0.6,0.4,1.3,0.4
	C52.1,21,52.3,21,52.4,21z M65.8,8.7c-0.4-0.4-0.9-0.8-1.7-1.1c-0.7-0.3-1.7-0.5-2.7-0.5c-0.9,0-1.6,0.1-2.3,0.4
	c-0.7,0.2-1.3,0.6-1.8,1c-2,1.7-3,4.2-3,7.5c0,1.6,0.2,3,0.7,4.3c0.5,1.2,1.2,2.3,2.3,3.1c0.5,0.4,1.1,0.8,1.8,1
	c0.7,0.3,1.5,0.4,2.3,0.4c0.9,0,1.8-0.2,2.7-0.5c0.9-0.4,1.5-0.9,2-1.7l0.3,1.8h3.5V1h-4.1V8.7z M66,15.9c0,0.6,0,1.2-0.1,1.9
	c-0.1,0.6-0.3,1.2-0.6,1.8c-0.3,0.5-0.7,1-1.2,1.3c-0.5,0.3-1.1,0.5-1.9,0.5c-0.6,0-1.2-0.1-1.6-0.4c-0.4-0.3-0.8-0.6-1.1-0.9
	c-0.4-0.6-0.7-1.2-0.9-1.9c-0.1-0.7-0.2-1.5-0.2-2.2c0-0.7,0.1-1.5,0.2-2.2c0.1-0.7,0.4-1.4,0.9-1.9c0.3-0.4,0.7-0.7,1.1-0.9
	c0.4-0.3,1-0.4,1.6-0.4c0.8,0,1.4,0.2,1.9,0.5c0.5,0.3,0.9,0.8,1.2,1.3c0.3,0.5,0.5,1.1,0.6,1.8C65.9,14.7,66,15.3,66,15.9z M74.3,1
	h4.3v4.2h-4.3V1z M74.4,7.5h4.1v16.9h-4.1V7.5z M92.6,20.8v3.4c-1.2,0.3-2.3,0.5-3.5,0.5c-1.7,0-3-0.5-3.8-1.4
	c-0.8-0.9-1.3-2.2-1.3-3.8v-8.6h-3.1V7.5H84V3.2l4.1-1v5.3h4.3v3.3H88v8.2c0,0.6,0.2,1.1,0.5,1.4c0.3,0.3,0.8,0.4,1.4,0.4
	c0.4,0,0.8,0,1.2,0C91.5,20.9,92,20.8,92.6,20.8z" />
  <rect class="grav-svg-hl-1" id="svg-logo-separator" x="103" y="0.5" width="1.5" height="26.8"/>
  <path class="grav-svg-hl-2" id="svg-logo-wipro" d="M194.2,7.7c-4.8,0-8.7,4-8.7,8.9s3.9,8.9,8.7,8.9s8.7-4,8.7-8.9C202.9,11.7,199,7.7,194.2,7.7 M194.2,21.3
	c-2.5,0-4.5-2.1-4.5-4.7s2-4.7,4.5-4.7s4.5,2.1,4.5,4.7S196.7,21.3,194.2,21.3 M139.7,8.2h-3.2c-0.3,0-0.6,0.2-0.6,0.5l-2.6,8.2
	l-4.5-8.7c-0.1-0.2-0.4-0.4-0.7-0.4h-0.3c-0.3,0-0.6,0.2-0.7,0.4l-4.5,8.7l-2.6-8.2c-0.1-0.2-0.4-0.5-0.6-0.5h-3.2
	c-0.4,0-0.6,0.3-0.5,0.7l5.2,16.2c0.1,0.2,0.4,0.5,0.6,0.5h0.5c0.3,0,0.6-0.2,0.7-0.4l5.3-10.3l5.4,10.3c0.1,0.2,0.4,0.4,0.7,0.4
	h0.5c0.3,0,0.6-0.2,0.6-0.5l5.2-16.2C140.3,8.5,140.1,8.2,139.7,8.2 M147.2,8.2H144c-0.4,0-0.7,0.3-0.7,0.7v15.4
	c0,0.4,0.3,0.7,0.7,0.7h3.2c0.4,0,0.7-0.3,0.7-0.7V8.9C147.9,8.5,147.6,8.2,147.2,8.2 M161.3,7.7c-2.2,0-4.2,1-5.7,2.5l0,0L155,8.6
	c-0.1-0.2-0.4-0.5-0.7-0.5h-1.5c-0.4,0-0.7,0.3-0.7,0.7v24.3c0,0.4,0.3,0.7,0.7,0.7h3.2c0.4,0,0.7-0.3,0.7-0.7v-8.4
	c1.4,0.5,2.9,0.7,4.5,0.7c4.5,0,8.2-4,8.2-8.9C169.5,11.7,165.8,7.7,161.3,7.7 M160.4,21.3c-1.3,0-2.6-0.3-3.6-0.9V14
	c0.8-1.3,2.1-2.1,3.6-2.1c2.4,0,4.3,2.1,4.3,4.7C164.7,19.2,162.8,21.3,160.4,21.3 M181.4,7.7c-3.1,0-4.9,2.5-4.9,2.5l-0.6-1.6
	c-0.1-0.2-0.4-0.5-0.7-0.5h-1.5c-0.4,0-0.7,0.3-0.7,0.7v15.4c0,0.4,0.3,0.7,0.7,0.7h3.2c0.4,0,0.7-0.3,0.7-0.7V13.5
	c1.9-2.3,4.3-1.5,4.8-1.3c0.5,0.2,0.8,0,1-0.4s0.8-1.9,1.1-2.5C184.8,8.7,184.5,7.7,181.4,7.7 M146.2,0.3c-1.4-0.4-2.8,0.4-3.2,1.8
	c-0.4,1.4,0.4,2.8,1.8,3.2s2.8-0.4,3.2-1.8C148.4,2,147.6,0.6,146.2,0.3"/>
  <path class="grav-svg-hl-3" id="svg-logo-digital" d="M222.6,9.9c-0.2-0.4-0.5-0.7-0.9-1c-0.4-0.3-0.8-0.5-1.2-0.7c-0.4-0.2-0.9-0.3-1.3-0.5c-0.5-0.1-0.9-0.2-1.4-0.2
	c-1,0-1.8,0.2-2.6,0.5c-0.7,0.3-1.4,0.7-1.9,1.2c-0.8,0.8-1.4,1.8-1.9,3c-0.4,1.2-0.6,2.5-0.6,4c0,1.4,0.2,2.6,0.6,3.8
	c0.4,1.2,1,2.2,1.8,3c0.5,0.6,1.2,1,2,1.3c0.8,0.3,1.7,0.5,2.7,0.5c0.9,0,1.9-0.2,2.8-0.7s1.6-1.1,2.1-1.9l0.2,2.1h2.4V1h-2.8V9.9z
	 M222.3,19.1c-0.3,0.9-0.7,1.7-1.4,2.3c-0.3,0.3-0.7,0.6-1.1,0.8c-0.4,0.2-0.9,0.3-1.5,0.3c-0.9,0-1.7-0.2-2.3-0.6
	c-0.6-0.4-1.1-0.9-1.4-1.5c-0.3-0.6-0.6-1.3-0.7-2c-0.1-0.7-0.2-1.5-0.2-2.3c0-0.8,0.1-1.5,0.2-2.3c0.1-0.7,0.4-1.4,0.7-2
	c0.3-0.6,0.8-1.1,1.4-1.5c0.6-0.4,1.4-0.6,2.3-0.6c0.6,0,1.1,0.1,1.5,0.3c0.4,0.2,0.8,0.5,1.1,0.8c0.7,0.6,1.2,1.4,1.4,2.3
	c0.3,0.9,0.4,1.9,0.4,2.9C222.7,17.2,222.6,18.2,222.3,19.1z M230.8,8h2.8v16.4h-2.8V8z M230.6,1h3.2v3.2h-3.2V1z M251.8,23.6
	c-0.6-0.7-1.5-1.1-2.5-1.4c-1-0.2-2-0.4-3-0.4h-3.2c-0.3,0-0.5,0-0.8,0c-0.3,0-0.6-0.1-0.8-0.2c-0.2-0.1-0.4-0.3-0.6-0.5
	c-0.2-0.2-0.2-0.5-0.2-0.9c0-0.4,0.2-0.7,0.5-0.9c0.3-0.2,0.6-0.4,0.9-0.5c0.5,0.2,1,0.3,1.3,0.4c0.4,0.1,0.8,0.1,1.4,0.1
	c1.1,0,2.1-0.2,2.9-0.5c0.8-0.4,1.5-0.8,2-1.4c0.5-0.5,0.8-1.1,1.1-1.8c0.3-0.7,0.4-1.4,0.4-2.2c0-0.7-0.1-1.4-0.3-1.9
	c-0.2-0.6-0.4-1-0.8-1.5c0.1-0.5,0.3-0.8,0.7-1.1c0.4-0.3,0.8-0.4,1.3-0.4h0.3c0.1,0,0.2,0,0.3,0V6.3c-0.1,0-0.3,0-0.4,0
	c-0.1,0-0.3,0-0.4,0c-0.8,0-1.5,0.2-2.1,0.6c-0.6,0.4-1,1-1.3,1.7c-0.5-0.3-1.1-0.5-1.7-0.7c-0.6-0.2-1.3-0.3-2.1-0.3
	c-1.1,0-2,0.2-2.8,0.5c-0.8,0.3-1.5,0.8-2,1.4c-0.5,0.5-0.9,1.1-1.1,1.7c-0.3,0.6-0.4,1.4-0.4,2.3c0,0.8,0.2,1.5,0.5,2.3
	c0.3,0.8,0.8,1.4,1.4,1.9c-0.6,0.3-1.1,0.7-1.6,1.3c-0.4,0.5-0.6,1.2-0.6,1.9c0,0.6,0.2,1.2,0.5,1.7c0.4,0.5,0.8,0.9,1.4,1.1
	c-0.6,0.3-1.2,0.8-1.7,1.4c-0.5,0.6-0.7,1.4-0.7,2.2c0,0.6,0.1,1.2,0.3,1.7c0.2,0.5,0.5,0.9,0.8,1.2c0.4,0.4,0.8,0.7,1.3,1
	c0.5,0.2,1,0.4,1.6,0.6c0.5,0.1,1.1,0.2,1.7,0.3c0.6,0.1,1.1,0.1,1.7,0.1c0.6,0,1.2,0,1.8-0.1c0.6-0.1,1.2-0.2,1.8-0.3
	c0.6-0.1,1.1-0.3,1.7-0.6c0.5-0.2,1-0.6,1.4-1c0.4-0.4,0.7-0.9,1-1.4c0.3-0.6,0.4-1.2,0.4-1.9c0-0.7-0.1-1.3-0.4-1.8
	C252.5,24.5,252.2,24,251.8,23.6z M242,10.8c0.7-0.7,1.6-1,2.7-1c1.2,0,2.1,0.3,2.7,1c0.7,0.7,1,1.5,1,2.6s-0.3,1.9-1,2.6
	c-0.7,0.7-1.6,1.1-2.7,1.1c-1.2,0-2.1-0.4-2.7-1.1c-0.7-0.7-1-1.6-1-2.6S241.4,11.5,242,10.8z M249.7,28.5c-0.3,0.3-0.6,0.5-0.9,0.6
	c-0.4,0.2-0.8,0.3-1.2,0.4c-0.4,0.1-0.8,0.1-1.2,0.2c-0.4,0-0.8,0-1.1,0c-0.4,0-0.8,0-1.2,0c-0.4,0-0.8-0.1-1.2-0.1
	c-0.4-0.1-0.8-0.2-1.1-0.3c-0.4-0.2-0.7-0.4-0.9-0.6c-0.5-0.5-0.7-1-0.7-1.7c0-0.6,0.2-1.2,0.6-1.6c0.4-0.5,0.9-0.8,1.5-1h3.8
	c0.5,0,1,0,1.5,0.1c0.5,0,1,0.2,1.4,0.3c0.4,0.2,0.8,0.4,1,0.8c0.3,0.3,0.4,0.8,0.4,1.4C250.4,27.5,250.1,28.1,249.7,28.5z M256,8
	h2.8v16.4H256V8z M255.8,1h3.2v3.2h-3.2V1z M271.8,22c0.3,0,0.6-0.1,1-0.2v2.4c-0.4,0.1-0.8,0.2-1.3,0.3c-0.5,0.1-1.2,0.1-1.9,0.1
	c-0.9,0-1.6-0.1-2.2-0.4c-0.6-0.3-1-0.6-1.4-1c-0.3-0.4-0.6-0.9-0.7-1.4c-0.1-0.5-0.2-1.1-0.2-1.6v-9.8h-3.2V8h3.2V3.8l2.8-0.6V8
	h4.9v2.4h-4.9v9.5c0,0.8,0.2,1.4,0.5,1.7c0.4,0.3,0.9,0.5,1.7,0.5c0.3,0,0.6,0,0.9,0C271.2,22,271.5,22,271.8,22z M289.4,22.3h-0.2
	c-0.3,0-0.5-0.1-0.7-0.2c-0.2-0.2-0.2-0.4-0.2-0.9v-7.9c0-0.9-0.2-1.8-0.5-2.5c-0.4-0.9-1-1.7-2-2.3c-0.9-0.6-2.2-0.9-3.8-0.9
	c-1,0-2,0.1-2.9,0.4c-0.9,0.3-1.6,0.7-2.2,1.3c-0.4,0.4-0.8,0.9-1,1.5c-0.2,0.6-0.4,1.2-0.4,2h2.7c0-0.8,0.3-1.4,0.8-2
	c0.3-0.3,0.7-0.5,1.1-0.7c0.5-0.2,1.1-0.3,1.8-0.3c0.7,0,1.2,0.1,1.6,0.2c0.4,0.2,0.8,0.4,1.1,0.6c0.4,0.3,0.6,0.7,0.7,1.2
	c0.1,0.5,0.1,0.9,0.1,1.3v1.2l-5,0.3c-1.1,0.1-2.1,0.3-2.8,0.6c-0.7,0.3-1.3,0.8-1.8,1.2s-0.8,1-1,1.6c-0.2,0.6-0.3,1.1-0.3,1.7
	c0,0.6,0.1,1.2,0.4,1.8c0.2,0.6,0.6,1.1,1.1,1.6c0.5,0.5,1,0.9,1.8,1.2c0.7,0.3,1.5,0.4,2.5,0.4c1.2,0,2.2-0.2,3.2-0.7
	c0.9-0.5,1.6-1.1,2.1-2h0.1c0,0.7,0.2,1.3,0.6,1.8c0.4,0.5,1,0.7,1.7,0.7c0.3,0,0.7,0,0.9-0.1c0.3-0.1,0.6-0.2,0.9-0.3v-2l-0.3,0.1
	C289.6,22.3,289.5,22.3,289.4,22.3z M285.6,17.5c0,0.7-0.1,1.4-0.3,2c-0.2,0.6-0.6,1.2-1.1,1.7c-0.4,0.5-0.9,0.8-1.5,1
	c-0.6,0.2-1.2,0.3-1.8,0.3c-1.2,0-2-0.3-2.5-0.9c-0.5-0.6-0.7-1.2-0.7-2c0-0.5,0.1-1,0.3-1.3c0.2-0.4,0.5-0.7,0.8-0.9
	c0.3-0.2,0.7-0.4,1.2-0.5c0.4-0.1,0.9-0.2,1.3-0.2l4.4-0.3V17.5z M299,22.1v2.3c-0.1,0-0.3,0.1-0.5,0.1c-0.3,0.1-0.8,0.1-1.5,0.1
	c-1.2,0-2.1-0.3-2.6-1c-0.5-0.7-0.8-1.7-0.8-3V1h2.8v19.4c0,0.6,0.1,1,0.3,1.3c0.2,0.3,0.6,0.4,1.2,0.4h0.9
	C298.9,22.1,298.9,22.1,299,22.1z"/>
</svg>
