<?xml version="1.0" encoding="utf-8"?>
<svg xmlns="http://www.w3.org/2000/svg" viewBox="0 0 299 34" id="buildit-logo">
  <g fill="none" fill-rule="evenodd">
    <path d="M194.062 7.503c-4.793 0-8.687 3.994-8.687 8.936 0 4.943 3.894 8.936 8.687 8.936 4.792 0 8.686-3.993 8.686-8.936 0-4.942-3.894-8.936-8.686-8.936m0 13.654c-2.471 0-4.468-2.122-4.468-4.718s1.997-4.717 4.468-4.717c2.47 0 4.468 2.121 4.468 4.717 0 2.596-1.997 4.718-4.468 4.718m-54.53-13.155h-3.195a.734.734 0 00-.65.475l-2.645 8.187-4.518-8.711a.886.886 0 00-.724-.45h-.324a.886.886 0 00-.724.45l-4.543 8.711-2.646-8.177a.734.734 0 00-.649-.475h-3.195a.517.517 0 00-.524.7l5.217 16.2c.103.272.357.458.649.473h.474a.886.886 0 00.724-.449l5.342-10.284 5.366 10.284a.886.886 0 00.724.45h.474a.699.699 0 00.65-.475l5.241-16.175a.52.52 0 00-.524-.724m7.488 0h-3.22a.749.749 0 00-.749.75v15.4c0 .414.336.75.75.75h3.22a.749.749 0 00.748-.75V8.752a.769.769 0 00-.749-.75m14.103-.499a7.893 7.893 0 00-5.716 2.521l-.574-1.572a.801.801 0 00-.674-.474h-1.498a.749.749 0 00-.748.748v24.337c0 .414.335.75.748.75h3.22a.749.749 0 00.75-.75v-8.436c1.436.496 2.947.75 4.467.748 4.518 0 8.187-3.993 8.187-8.936 0-4.942-3.644-8.936-8.162-8.936m-.873 13.654a7.007 7.007 0 01-3.595-.949v-6.39a4.216 4.216 0 013.595-2.086c2.396 0 4.318 2.121 4.318 4.717 0 2.596-1.922 4.718-4.318 4.718m20.967-13.654c-3.095 0-4.893 2.521-4.893 2.521l-.574-1.572a.801.801 0 00-.674-.474h-1.497a.749.749 0 00-.75.748v15.401c0 .414.336.75.75.75h3.22a.749.749 0 00.749-.75V13.37a4.176 4.176 0 014.767-1.323.729.729 0 00.999-.374c.15-.325.848-1.922 1.098-2.521.25-.6-.1-1.648-3.195-1.648M146.062.09a2.608 2.608 0 101.847 3.195A2.6 2.6 0 00146.062.09" fill="#000" fill-rule="nonzero"/>
    <g fill="#000" fill-rule="nonzero">
      <path d="M222.744 24.711l-.194-2.141a4.69 4.69 0 01-2.11 1.892 6.457 6.457 0 01-2.78.661 7.089 7.089 0 01-2.678-.469 5.656 5.656 0 01-1.962-1.315 7.753 7.753 0 01-1.77-2.996 11.949 11.949 0 01-.6-3.829c-.01-1.35.203-2.693.632-3.974a7.64 7.64 0 011.867-3.035 6.405 6.405 0 011.932-1.2 6.822 6.822 0 012.579-.445c.464.002.926.056 1.378.162.463.108.914.26 1.348.455.425.191.823.437 1.185.731.343.28.634.617.859.999V1.273h2.746v23.438h-2.432zm-.162-8.21c.006-.991-.125-1.979-.39-2.935a4.653 4.653 0 00-1.427-2.289 4.535 4.535 0 00-1.118-.748 3.495 3.495 0 00-1.543-.31 4.313 4.313 0 00-2.271.552 4.041 4.041 0 00-1.418 1.437 6.505 6.505 0 00-.749 2.02 12.23 12.23 0 000 4.51c.133.716.386 1.405.749 2.037a3.994 3.994 0 001.428 1.46 4.29 4.29 0 002.271.552 3.52 3.52 0 001.543-.307 4.543 4.543 0 001.108-.764 4.645 4.645 0 001.428-2.286 10.78 10.78 0 00.39-2.938v.01zM230.435 4.518V1.273h3.212v3.245h-3.212zm.205 20.193V8.282h2.823v16.43h-2.823zM252.922 27.135a4.243 4.243 0 01-.407 1.9c-.251.522-.589.999-.998 1.41a4.84 4.84 0 01-1.38.958 8.931 8.931 0 01-1.67.585 12.55 12.55 0 01-1.785.292c-.606.051-1.2.078-1.785.08-.54 0-1.098-.027-1.672-.08a10.706 10.706 0 01-1.67-.292 8.117 8.117 0 01-1.558-.585 5.08 5.08 0 01-1.32-.95 4.111 4.111 0 01-.844-1.234 4.039 4.039 0 01-.324-1.687 3.637 3.637 0 01.681-2.222 4.593 4.593 0 011.655-1.412 2.958 2.958 0 01-1.38-1.071 2.818 2.818 0 01-.534-1.688 3.073 3.073 0 01.616-1.919c.41-.54.945-.974 1.558-1.266a5.422 5.422 0 01-1.396-1.947 5.796 5.796 0 01-.499-2.303c-.023-.79.121-1.575.422-2.304a5.828 5.828 0 013.163-3.05 7.46 7.46 0 012.84-.487 7.775 7.775 0 012.092.25c.587.161 1.15.401 1.672.713a3.495 3.495 0 011.313-1.702 3.6 3.6 0 012.062-.602c.13 0 .265 0 .404.018.14.017.277.027.407.047v2.247a1.305 1.305 0 00-.292-.033h-.324a2.16 2.16 0 00-1.348.407 1.705 1.705 0 00-.664 1.086c.35.442.619.942.794 1.478.195.624.289 1.275.277 1.93a5.81 5.81 0 01-1.498 3.925 6.046 6.046 0 01-2.03 1.413 7.081 7.081 0 01-2.87.534 8.57 8.57 0 01-1.413-.097 9.208 9.208 0 01-1.345-.357 3.55 3.55 0 00-.926.52 1.13 1.13 0 00-.47.94c-.016.307.072.61.25.861.162.205.368.372.602.487.25.122.518.199.794.227.275.031.551.047.828.048h3.245c.995.003 1.986.123 2.953.357.936.207 1.793.68 2.466 1.363a4.6 4.6 0 01.941 1.38c.251.578.376 1.202.367 1.832zm-2.693 0a2.246 2.246 0 00-.407-1.428 2.474 2.474 0 00-1.038-.778 4.78 4.78 0 00-1.396-.325 19.194 19.194 0 00-1.497-.065h-3.807a3.133 3.133 0 00-1.46.959 2.389 2.389 0 00-.617 1.637c-.019.643.228 1.265.682 1.72.265.263.579.472.923.616.361.153.737.268 1.121.342.39.075.786.123 1.183.145.402.023.784.033 1.154.033.369 0 .723 0 1.135-.033a8.065 8.065 0 001.233-.162c.4-.084.79-.203 1.168-.357.352-.141.672-.35.942-.617.45-.444.696-1.055.68-1.687zm-1.882-13.434a3.55 3.55 0 00-.999-2.578c-.665-.683-1.58-1.024-2.745-1.024-1.125 0-2.029.341-2.711 1.024a3.495 3.495 0 00-1.018 2.578 3.68 3.68 0 00.998 2.614c.666.702 1.58 1.053 2.746 1.053a3.557 3.557 0 003.744-3.667h-.015zM255.648 4.518V1.273h3.212v3.245h-3.212zm.202 20.193V8.282h2.823v16.43h-2.823zM272.619 24.474c-.444.127-.894.23-1.348.31-.638.105-1.283.154-1.93.145a5.441 5.441 0 01-2.206-.39 3.642 3.642 0 01-1.38-.998 3.7 3.7 0 01-.714-1.41 6.407 6.407 0 01-.21-1.64v-9.84h-3.18V8.282h3.185V4.096l2.746-.649v4.835h4.867v2.369h-4.867v9.507c0 .8.178 1.374.534 1.72.356.346.914.52 1.672.52.302 0 .617 0 .941-.033.325-.032.627-.052.909-.097.324-.043.649-.098.973-.163l.008 2.37zM289.797 24.54a3.457 3.457 0 01-.876.309 5.18 5.18 0 01-.944.08 2.177 2.177 0 01-1.747-.73 2.606 2.606 0 01-.631-1.77h-.068a5.047 5.047 0 01-2.124 1.965 6.784 6.784 0 01-3.162.73 6.447 6.447 0 01-2.497-.438 5.174 5.174 0 01-1.747-1.153 4.8 4.8 0 01-1.053-1.622 4.971 4.971 0 01-.357-1.85c.006-.562.099-1.12.274-1.655.195-.6.523-1.149.959-1.605a5.724 5.724 0 011.8-1.248 7.788 7.788 0 012.805-.616l4.992-.292V13.44a6.215 6.215 0 00-.147-1.297 2.289 2.289 0 00-.696-1.201 3.08 3.08 0 00-1.056-.617 4.992 4.992 0 00-1.638-.227 5.174 5.174 0 00-1.85.277 3.2 3.2 0 00-1.135.697 2.69 2.69 0 00-.811 1.98h-2.693c.002-.675.14-1.342.404-1.963.248-.55.594-1.05 1.02-1.478a5.222 5.222 0 012.192-1.312 9.236 9.236 0 012.873-.44c1.601 0 2.866.298 3.795.894A4.977 4.977 0 01287.658 11c.338.8.508 1.662.5 2.531v7.958c0 .434.079.726.249.876.183.16.421.241.664.227h.227a.681.681 0 00.227-.032l.25-.065.022 2.044zm-4.348-7.756l-4.413.25a5.936 5.936 0 00-1.266.212c-.414.109-.809.284-1.168.519a2.648 2.648 0 00-.844.89 2.576 2.576 0 00-.324 1.331 2.915 2.915 0 00.749 1.965c.499.57 1.331.857 2.496.858a5.302 5.302 0 001.834-.324 3.979 3.979 0 001.543-.999 4.366 4.366 0 001.07-1.72 6.36 6.36 0 00.325-2.011l-.002-.971zM298.868 24.711c-.159.049-.322.081-.487.098-.483.076-.971.109-1.46.097-1.21 0-2.086-.346-2.628-1.038-.543-.693-.813-1.691-.812-2.996V1.273h2.746v19.445c-.032.445.082.89.325 1.265.218.281.607.422 1.168.422h.908a.691.691 0 00.227-.032l.013 2.338z"/>
    </g>
    <path d="M103.506 1.598l.047 25.35" stroke="#0060FF" stroke-width="2.117" stroke-linecap="square"/>
    <g fill="#0060FF" fill-rule="nonzero">
      <path d="M15.608 16.297a11.442 11.442 0 01-.749 4.268 7.488 7.488 0 01-2.271 3.098 6.24 6.24 0 01-1.797 1.048 6.4 6.4 0 01-2.29.39 6.99 6.99 0 01-2.693-.534 4.318 4.318 0 01-2.044-1.705l-.27 1.85H0V1.272h4.056v7.788a4.276 4.276 0 011.747-1.183 7.009 7.009 0 012.676-.472 7.051 7.051 0 012.322.357c.654.222 1.264.56 1.8.998 2.005 1.673 3.007 4.185 3.007 7.536zm-4.126-.072c0-.73-.07-1.458-.212-2.174a4.538 4.538 0 00-.859-1.915 4.141 4.141 0 00-1.12-.941 3.12 3.12 0 00-1.606-.39 3.405 3.405 0 00-1.946.5 3.542 3.542 0 00-1.169 1.298 5.437 5.437 0 00-.569 1.747 12.68 12.68 0 00-.14 1.875c.003.847.101 1.69.293 2.516.164.8.572 1.531 1.168 2.091.29.267.63.476.998.617.436.16.899.237 1.363.227a3.12 3.12 0 001.605-.39 4.096 4.096 0 001.12-.94 4.53 4.53 0 00.86-1.93 11.36 11.36 0 00.214-2.191zM29.626 24.711l-.292-2.206a4.416 4.416 0 01-1.914 1.932c-.9.472-1.904.712-2.92.696a6.38 6.38 0 01-2.434-.447 5.294 5.294 0 01-1.835-1.223 5.454 5.454 0 01-1.168-1.9 7.119 7.119 0 01-.405-2.465V7.828h4.057v10.351c0 .999.216 1.783.648 2.354.433.57 1.19.857 2.272.859a2.77 2.77 0 001.216-.25c.316-.148.606-.35.856-.594a3.28 3.28 0 00.998-1.72c.163-.68.247-1.377.25-2.077V7.828h4.056V24.71h-3.385zM37.414 5.491V1.305h4.348v4.186h-4.348zm.13 19.22V7.828h4.12V24.71h-4.12zM52.47 24.669c-.411.087-.708.147-.893.18a5.763 5.763 0 01-.891.047c-1.386 0-2.5-.357-3.342-1.07-.843-.715-1.264-1.872-1.266-3.473V1.248h4.094v18.424c-.022.415.08.828.292 1.185.194.292.636.437 1.33.437.13.002.26-.003.39-.015a2.04 2.04 0 01.291-.017l-.005 3.407zM66.164 24.711l-.25-1.85a4.343 4.343 0 01-2.044 1.706 7.004 7.004 0 01-2.693.534 6.515 6.515 0 01-2.314-.39 6.165 6.165 0 01-1.817-1.038 7.346 7.346 0 01-2.247-3.098 11.652 11.652 0 01-.729-4.268c0-3.353 1.006-5.862 3.018-7.528a5.783 5.783 0 011.8-.999 7.988 7.988 0 015.062.115c.637.238 1.21.621 1.672 1.118v-7.74h4.057v23.438h-3.515zm-.357-8.486a12.356 12.356 0 00-.147-1.865c-.09-.61-.281-1.2-.567-1.747a3.542 3.542 0 00-1.168-1.298 3.417 3.417 0 00-1.947-.5 3.13 3.13 0 00-1.607.39 4.168 4.168 0 00-1.119.941 4.543 4.543 0 00-.86 1.915 11.3 11.3 0 00-.21 2.174c0 .735.07 1.469.21 2.191.13.702.425 1.363.86 1.93.314.377.693.696 1.119.94a3.13 3.13 0 001.607.39 3.435 3.435 0 001.947-.5c.49-.329.892-.775 1.168-1.297a5.536 5.536 0 00.567-1.77c.096-.627.146-1.26.147-1.894zM74.082 5.491V1.305h4.348v4.186h-4.348zm.13 19.22V7.828h4.12V24.71h-4.12zM92.383 24.474c-1.133.298-2.3.45-3.472.455-1.709 0-2.985-.46-3.829-1.378-.844-.919-1.265-2.19-1.265-3.814V11.17h-3.083V7.828h3.083V3.544l4.056-.998v5.282h4.243v3.342h-4.253v8.21c0 .649.15 1.12.454 1.413.305.292.779.436 1.428.436.432 0 .838 0 1.215-.032.377-.033.849-.065 1.413-.13l.01 3.407z"/>
    </g>
  </g>
</svg>