<?xml version="1.0" encoding="utf-8"?>
<!-- Generator: Adobe Illustrator 23.1.1, SVG Export Plug-In . SVG Version: 6.00 Build 0)  -->
<svg version="1.1" id="cycle-7-lockup" xmlns="http://www.w3.org/2000/svg" xmlns:xlink="http://www.w3.org/1999/xlink" x="0px"
	 y="0px" viewBox="0 0 200 64.7" style="enable-background:new 0 0 200 64.7;">
<title>Cycle 7</title>
<path id="cycle-7" d="M199.4,22.5L183.2,55c-1.5,3.1-4.6,5-8,5h-1.1c-5-0.1-9-4.1-8.9-9.1c0-1.3,0.3-2.6,0.9-3.8l20.4-40.9
	c0.3-0.5,0.2-1.1-0.1-1.6c-0.3-0.5-0.8-0.8-1.4-0.8h-20.7c-2,0-3.8,1.1-4.6,2.8l-0.2,0.5c-1.3,2.6-0.3,5.7,2.3,7
	c0.7,0.4,1.5,0.6,2.4,0.6h15.3l-1.9,3.7h-13.4c-5,0-9-4.1-8.9-9.1c0-1.4,0.3-2.7,0.9-3.9l0.2-0.5c1.5-3,4.6-4.9,8-4.9h20.7
	c3,0,5.4,2.4,5.4,5.4c0,0.9-0.2,1.7-0.6,2.5l-20.4,40.8c-1.3,2.6-0.2,5.7,2.3,7c0.7,0.4,1.5,0.5,2.3,0.5h1.1c2,0,3.8-1.1,4.7-2.9
	l16.2-32.6c0.3-0.5,0.2-1.1-0.1-1.6c-0.3-0.5-0.8-0.8-1.4-0.8h-7.2l1.9-3.7h5.3c3,0,5.4,2.4,5.4,5.4C200,20.9,199.8,21.7,199.4,22.5
	z M33.5,43.8c-0.5-0.1-1,0.1-1.4,0.4c-1.5,1.2-3.3,2.2-5.1,2.8c-1.8,0.7-3.8,1-5.7,1c-2.3,0-4.6-0.5-6.7-1.4
	c-2.1-0.9-3.9-2.2-5.5-3.9c-1.6-1.7-2.8-3.6-3.7-5.7c-0.9-2.2-1.4-4.6-1.3-7c0-2.4,0.4-4.7,1.3-6.9c0.9-2.1,2.1-4.1,3.7-5.7
	c1.6-1.6,3.4-3,5.5-3.9c2.1-1,4.4-1.4,6.7-1.4c2,0,4,0.3,5.9,0.9c1.7,0.6,3.3,1.6,4.7,2.8c0.3,0.3,0.7,0.4,1.1,0.5
	c0.3,0,0.7,0,1-0.2c0.3-0.1,0.5-0.4,0.5-0.7c0.3-0.1,0.5-0.4,0.7-0.7c0.2-0.3,0.2-0.7,0.1-1c-0.1-0.4-0.3-0.7-0.6-0.9
	c-1.8-1.6-4-2.8-6.2-3.7c-2.3-0.8-4.7-1.2-7.2-1.1c-2.9,0-5.7,0.6-8.3,1.7c-5.2,2.3-9.2,6.5-11.4,11.7c-2.2,5.5-2.2,11.5,0,17
	c1.1,2.6,2.6,5,4.6,7c1.9,2,4.2,3.7,6.8,4.8c2.6,1.1,5.5,1.7,8.3,1.7c2.4,0,4.9-0.4,7.2-1.1c2.3-0.7,4.5-2,6.2-3.7
	c0.2-0.2,0.4-0.5,0.5-0.7c0.1-0.3,0.1-0.5,0.1-0.8c0-0.5-0.2-1-0.5-1.4C34.5,44.1,34,43.9,33.5,43.8z M66.1,21.8
	c-0.9-0.5-2-0.2-2.5,0.6c-0.1,0.1-0.1,0.2-0.2,0.4L53.2,45.3L42.5,22.7c-0.2-0.5-0.6-0.9-1.1-1.1c-0.5-0.2-1.1-0.1-1.5,0.1
	c-0.5,0.2-0.9,0.6-1.1,1.1c-0.2,0.5-0.1,1.1,0.1,1.5l12.2,25.3l-5.5,12c-0.5,0.8-0.3,1.9,0.5,2.4c0.1,0.1,0.3,0.2,0.5,0.2
	c0.3,0.1,0.7,0.2,1,0.2c0.7,0,1.4-0.5,1.6-1.3l17.8-39c0.5-0.8,0.3-1.8-0.5-2.4C66.4,21.9,66.3,21.8,66.1,21.8z M89.7,22.7
	c-1.9-0.9-4-1.3-6.2-1.3c-2.6-0.1-5.2,0.6-7.5,2c-2.2,1.3-3.9,3.2-5.1,5.5c-1.3,2.4-1.9,5.1-1.9,7.8c0,2.7,0.7,5.4,2,7.8
	c1.3,2.3,3.1,4.1,5.3,5.5c2.3,1.4,5,2.1,7.7,2c3.7,0.1,7.3-1.2,10-3.7c0.4-0.3,0.6-0.8,0.5-1.3c-0.1-0.5-0.3-1-0.7-1.4
	c-0.4-0.3-0.8-0.5-1.3-0.4c-0.5,0.1-1,0.3-1.4,0.6c-0.9,0.8-2,1.4-3.2,1.8c-1.3,0.4-2.6,0.6-3.9,0.6c-2,0-3.9-0.5-5.7-1.5
	c-1.6-1-3-2.4-3.8-4.1c-0.9-1.8-1.4-3.8-1.4-5.9c0-2,0.4-4.1,1.3-5.9c1.7-3.5,5.2-5.6,9-5.6c3.1-0.1,6,1.3,8,3.6
	c0.3,0.4,0.8,0.7,1.3,0.8c0.5,0.1,1,0,1.3-0.3c0.5-0.3,0.8-0.8,0.9-1.3c0.1-0.5-0.1-1-0.4-1.4C93.3,24.9,91.6,23.6,89.7,22.7z
	 M110.7,47.5h-1.4c-1,0-2-0.6-2.5-1.5c-0.7-1.2-1-2.5-1-3.8V10.9c0-0.6-0.2-1.1-0.6-1.5c-0.8-0.8-2.1-0.9-2.9-0.1
	c-0.4,0.4-0.7,1-0.6,1.6v31.3c0,1.7,0.3,3.4,1,4.9c0.6,1.3,1.5,2.5,2.7,3.3c1.1,0.8,2.5,1.2,3.9,1.2h0.7c0.6,0,1.3-0.2,1.8-0.6
	c0.4-0.4,0.7-0.9,0.7-1.5c0-0.6-0.1-1.1-0.5-1.5C111.7,47.6,111.2,47.4,110.7,47.5L110.7,47.5z M141.8,28.5c1.2,2.4,1.8,5,1.7,7.6
	c0,0.5-0.2,1-0.5,1.4c-0.4,0.4-0.9,0.5-1.4,0.5h-22.2c0.1,1.6,0.6,3.2,1.4,4.6c0.9,1.7,2.3,3.1,4,4.1c1.8,1,3.8,1.5,5.8,1.5
	c1.4,0,2.7-0.2,4-0.7c1.2-0.4,2.3-1,3.2-1.7c0.4-0.3,0.9-0.5,1.4-0.5c0.5,0,0.9,0.1,1.3,0.4c0.4,0.4,0.7,0.9,0.7,1.4
	c0,0.5-0.2,1-0.6,1.3c-1.4,1.1-2.9,2-4.6,2.6c-1.7,0.6-3.5,1-5.4,1c-2.8,0.1-5.5-0.6-7.9-1.9c-2.3-1.3-4.1-3.1-5.4-5.4
	c-1.3-2.4-2-5.1-2-7.9c-0.1-2.8,0.6-5.5,1.8-7.9c1.2-2.2,2.9-4.1,5.1-5.4c2.2-1.4,4.8-2,7.5-2c2.6-0.1,5.1,0.6,7.3,1.9
	C139.1,24.5,140.7,26.3,141.8,28.5L141.8,28.5z M139.6,34.5c-0.1-1.4-0.5-2.7-1.1-4c-0.7-1.6-1.9-3-3.4-4c-1.6-1-3.4-1.5-5.3-1.4
	c-1.9,0-3.8,0.5-5.5,1.5c-1.6,1-2.8,2.4-3.7,4.1c-0.6,1.2-1,2.5-1.1,3.8L139.6,34.5z"/>
</svg>
