<?xml version="1.0" encoding="utf-8"?>
<!-- Generator: Adobe Illustrator 23.1.1, SVG Export Plug-In . SVG Version: 6.00 Build 0)  -->
<svg version="1.1" id="gravity-planet" xmlns="http://www.w3.org/2000/svg" xmlns:xlink="http://www.w3.org/1999/xlink" x="0px"
	 y="0px" viewBox="0 0 32 18.6" style="enable-background:new 0 0 32 18.6;">
<style type="text/css">
	.grav-svg-hl-1{fill:#F7F5F7;}
</style>
<path id="ring" class="grav-svg-hl-1" d="M4.5,13.7c0.3,0.6,1.3,0.8,2.8,0.7c0.3,0.6,0.7,1.2,1.2,1.7c-4.5,1.2-7.8,1.3-8.4,0
	c-1-2.2,5.2-7.2,13.9-11.3c4.2-2,8.6-3.5,13.2-4.3c-0.5,0.7-0.7,1.6-0.5,2.4c-1.5-0.9-6.6,0.2-12.2,2.8C8.2,8.6,3.8,12.2,4.5,13.7z
	 M27,3.9c-0.3,0.8-0.7,1.5-1.4,2c0.2,0.6,0.4,1.3,0.5,2c1.1-0.8,2.2-1.6,3.2-2.6C28.4,5.2,27.6,4.7,27,3.9z"/>
<circle id="moon" cx="29.9" cy="2.1" r="2.1"/>
<path id="planet" d="M13.3,3.2c2.1-1,4.2-1.8,6.2-2.5c-4.8-1.9-10.2,0.5-12,5.3C7.4,6,7.4,6.2,7.3,6.3
	C9.3,5.2,11.2,4.1,13.3,3.2z M24,4.4c-3.1,0.5-6,1.5-8.8,2.9c-2.9,1.2-5.5,2.9-7.9,4.9c0.1,0.4,0.3,0.7,0.4,1
	c2.2,4.7,7.7,6.7,12.4,4.5s6.7-7.7,4.5-12.4C24.4,5.1,24.2,4.7,24,4.4z"/>
</svg>
